<?xml version="1.0" encoding="us-ascii" standalone="no"?><svg xmlns="http://www.w3.org/2000/svg" xmlns:xlink="http://www.w3.org/1999/xlink" contentStyleType="text/css" height="901px" preserveAspectRatio="none" style="width:1703px;height:901px;background:#FFFFFF;" version="1.1" viewBox="0 0 1703 901" width="1703px" zoomAndPan="magnify"><defs><filter height="300%" id="f117ij6bpa1w22" width="300%" x="-1" y="-1"><feGaussianBlur result="blurOut" stdDeviation="2.0"/><feColorMatrix in="blurOut" result="blurOut2" type="matrix" values="0 0 0 0 0 0 0 0 0 0 0 0 0 0 0 0 0 0 .4 0"/><feOffset dx="4.0" dy="4.0" in="blurOut2" result="blurOut3"/><feBlend in="SourceGraphic" in2="blurOut3" mode="normal"/></filter></defs><g><text fill="#000000" font-family="sans-serif" font-size="14" font-weight="bold" lengthAdjust="spacing" textLength="302" x="693.75" y="22.9951">Task App (Stage 2) - Class Diagramm</text><!--class Task--><g id="elem_Task"><rect codeLine="5" fill="#FEFECE" filter="url(#f117ij6bpa1w22)" height="194.6719" id="Task" style="stroke:#A80036;stroke-width:1.0;" width="603" x="1086.5" y="534.2969"/><ellipse cx="1367.25" cy="550.2969" fill="#ADD1B2" rx="11" ry="11" style="stroke:#A80036;stroke-width:1.0;"/><path d="M1369.5938,545.9688 C1368.6563,545.5313 1368.0625,545.3906 1367.1875,545.3906 C1364.5625,545.3906 1362.5625,547.4688 1362.5625,550.1875 L1362.5625,551.3125 C1362.5625,553.8906 1364.6719,555.7813 1367.5625,555.7813 C1368.7813,555.7813 1369.9375,555.4844 1370.6875,554.9375 C1371.2656,554.5313 1371.5938,554.0781 1371.5938,553.6875 C1371.5938,553.2344 1371.2031,552.8438 1370.7344,552.8438 C1370.5156,552.8438 1370.3125,552.9219 1370.125,553.1094 C1369.6719,553.5938 1369.6719,553.5938 1369.4844,553.6875 C1369.0625,553.9531 1368.375,554.0781 1367.6094,554.0781 C1365.5625,554.0781 1364.2656,552.9844 1364.2656,551.2813 L1364.2656,550.1875 C1364.2656,548.4063 1365.5156,547.0938 1367.25,547.0938 C1367.8281,547.0938 1368.4375,547.25 1368.9063,547.5 C1369.3906,547.7813 1369.5625,548 1369.6563,548.4063 C1369.7188,548.8125 1369.75,548.9375 1369.8906,549.0625 C1370.0313,549.2031 1370.2656,549.3125 1370.4844,549.3125 C1370.75,549.3125 1371.0156,549.1719 1371.1875,548.9531 C1371.2969,548.7969 1371.3281,548.6094 1371.3281,548.1875 L1371.3281,546.7656 C1371.3281,546.3281 1371.3125,546.2031 1371.2188,546.0469 C1371.0625,545.7813 1370.7813,545.6406 1370.4844,545.6406 C1370.1875,545.6406 1369.9844,545.7344 1369.7656,546.0469 L1369.5938,545.9688 Z " fill="#000000"/><text fill="#000000" font-family="sans-serif" font-size="14" lengthAdjust="spacing" textLength="33" x="1387.75" y="555.1436">Task</text><line style="stroke:#A80036;stroke-width:1.0;" x1="1087.5" x2="1688.5" y1="566.2969" y2="566.2969"/><rect fill="none" height="6" style="stroke:#C82930;stroke-width:1.0;" width="6" x="1094.5" y="576.9453"/><text fill="#000000" font-family="sans-serif" font-size="14" lengthAdjust="spacing" textLength="75" x="1106.5" y="583.292">int taskID;</text><rect fill="none" height="6" style="stroke:#C82930;stroke-width:1.0;" width="6" x="1094.5" y="593.2422"/><text fill="#000000" font-family="sans-serif" font-size="14" lengthAdjust="spacing" textLength="125" x="1106.5" y="599.5889">String taskName;</text><rect fill="none" height="6" style="stroke:#C82930;stroke-width:1.0;" width="6" x="1094.5" y="609.5391"/><text fill="#000000" font-family="sans-serif" font-size="14" lengthAdjust="spacing" textLength="168" x="1106.5" y="615.8857">String taskDescription;</text><rect fill="none" height="6" style="stroke:#C82930;stroke-width:1.0;" width="6" x="1094.5" y="625.8359"/><text fill="#000000" font-family="sans-serif" font-size="14" lengthAdjust="spacing" textLength="137" x="1106.5" y="632.1826">LocalDate dueDate</text><rect fill="none" height="6" style="stroke:#C82930;stroke-width:1.0;" width="6" x="1094.5" y="642.1328"/><text fill="#000000" font-family="sans-serif" font-size="14" lengthAdjust="spacing" textLength="101" x="1106.5" y="648.4795">EStatus staus;</text><rect fill="none" height="6" style="stroke:#C82930;stroke-width:1.0;" width="6" x="1094.5" y="658.4297"/><text fill="#000000" font-family="sans-serif" font-size="14" lengthAdjust="spacing" textLength="208" x="1106.5" y="664.7764">List&lt;ECategory&gt; categories;</text><line style="stroke:#A80036;stroke-width:1.0;" x1="1087.5" x2="1688.5" y1="672.0781" y2="672.0781"/><ellipse cx="1097.5" cy="685.7266" fill="#84BE84" rx="3" ry="3" style="stroke:#038048;stroke-width:1.0;"/><text fill="#000000" font-family="sans-serif" font-size="14" lengthAdjust="spacing" textLength="577" x="1106.5" y="689.0732">Task(taskID: int, taskName: String, taskDescription: String, dueDate: LocalDate)</text><ellipse cx="1097.5" cy="702.0234" fill="#84BE84" rx="3" ry="3" style="stroke:#038048;stroke-width:1.0;"/><text fill="#000000" font-family="sans-serif" font-size="14" lengthAdjust="spacing" textLength="289" x="1106.5" y="705.3701">void addCategory(category: ECategory);</text><ellipse cx="1097.5" cy="718.3203" fill="#84BE84" rx="3" ry="3" style="stroke:#038048;stroke-width:1.0;"/><text fill="#000000" font-family="sans-serif" font-size="14" lengthAdjust="spacing" textLength="318" x="1106.5" y="721.667">void removeCategory(category: ECategory);</text></g><!--class TaskManager--><g id="elem_TaskManager"><rect codeLine="18" fill="#FEFECE" filter="url(#f117ij6bpa1w22)" height="276.1563" id="TaskManager" style="stroke:#A80036;stroke-width:1.0;" width="636" x="710" y="181.2969"/><ellipse cx="976.75" cy="197.2969" fill="#ADD1B2" rx="11" ry="11" style="stroke:#A80036;stroke-width:1.0;"/><path d="M979.0938,192.9688 C978.1563,192.5313 977.5625,192.3906 976.6875,192.3906 C974.0625,192.3906 972.0625,194.4688 972.0625,197.1875 L972.0625,198.3125 C972.0625,200.8906 974.1719,202.7813 977.0625,202.7813 C978.2813,202.7813 979.4375,202.4844 980.1875,201.9375 C980.7656,201.5313 981.0938,201.0781 981.0938,200.6875 C981.0938,200.2344 980.7031,199.8438 980.2344,199.8438 C980.0156,199.8438 979.8125,199.9219 979.625,200.1094 C979.1719,200.5938 979.1719,200.5938 978.9844,200.6875 C978.5625,200.9531 977.875,201.0781 977.1094,201.0781 C975.0625,201.0781 973.7656,199.9844 973.7656,198.2813 L973.7656,197.1875 C973.7656,195.4063 975.0156,194.0938 976.75,194.0938 C977.3281,194.0938 977.9375,194.25 978.4063,194.5 C978.8906,194.7813 979.0625,195 979.1563,195.4063 C979.2188,195.8125 979.25,195.9375 979.3906,196.0625 C979.5313,196.2031 979.7656,196.3125 979.9844,196.3125 C980.25,196.3125 980.5156,196.1719 980.6875,195.9531 C980.7969,195.7969 980.8281,195.6094 980.8281,195.1875 L980.8281,193.7656 C980.8281,193.3281 980.8125,193.2031 980.7188,193.0469 C980.5625,192.7813 980.2813,192.6406 979.9844,192.6406 C979.6875,192.6406 979.4844,192.7344 979.2656,193.0469 L979.0938,192.9688 Z " fill="#000000"/><text fill="#000000" font-family="sans-serif" font-size="14" lengthAdjust="spacing" textLength="94" x="997.25" y="202.1436">TaskManager</text><line style="stroke:#A80036;stroke-width:1.0;" x1="711" x2="1345" y1="213.2969" y2="213.2969"/><rect fill="none" height="6" style="stroke:#C82930;stroke-width:1.0;" width="6" x="718" y="223.9453"/><text fill="#000000" font-family="sans-serif" font-size="14" lengthAdjust="spacing" textLength="246" x="730" y="230.292">HashMap&lt;Integer, Task&gt; taskList;</text><rect fill="none" height="6" style="stroke:#C82930;stroke-width:1.0;" width="6" x="718" y="240.2422"/><text fill="#000000" font-family="sans-serif" font-size="14" lengthAdjust="spacing" textLength="287" x="730" y="246.5889">HashMap&lt;Integer, Project&gt; projectList;</text><line style="stroke:#A80036;stroke-width:1.0;" x1="711" x2="1345" y1="253.8906" y2="253.8906"/><ellipse cx="721" cy="267.5391" fill="#84BE84" rx="3" ry="3" style="stroke:#038048;stroke-width:1.0;"/><text fill="#000000" font-family="sans-serif" font-size="14" lengthAdjust="spacing" textLength="109" x="730" y="270.8857">TaskManager();</text><ellipse cx="721" cy="283.8359" fill="#84BE84" rx="3" ry="3" style="stroke:#038048;stroke-width:1.0;"/><text fill="#000000" font-family="sans-serif" font-size="14" lengthAdjust="spacing" textLength="610" x="730" y="287.1826">void createNewTask(taskName: String, taskDescription: String, dueDate: LocalDate);</text><ellipse cx="721" cy="300.1328" fill="#84BE84" rx="3" ry="3" style="stroke:#038048;stroke-width:1.0;"/><text fill="#000000" font-family="sans-serif" font-size="14" lengthAdjust="spacing" textLength="204" x="730" y="303.4795">void deleteTask(taskID: int);</text><ellipse cx="721" cy="316.4297" fill="#84BE84" rx="3" ry="3" style="stroke:#038048;stroke-width:1.0;"/><text fill="#000000" font-family="sans-serif" font-size="14" lengthAdjust="spacing" textLength="205" x="730" y="319.7764">int getTaskByID(taskID: int);</text><ellipse cx="721" cy="332.7266" fill="#84BE84" rx="3" ry="3" style="stroke:#038048;stroke-width:1.0;"/><text fill="#000000" font-family="sans-serif" font-size="14" lengthAdjust="spacing" textLength="382" x="730" y="336.0732">void assignCategory(taskID:int, category:ECategory);</text><ellipse cx="721" cy="349.0234" fill="#84BE84" rx="3" ry="3" style="stroke:#038048;stroke-width:1.0;"/><text fill="#000000" font-family="sans-serif" font-size="14" lengthAdjust="spacing" textLength="241" x="730" y="352.3701">void addProject(project: Project);</text><ellipse cx="721" cy="365.3203" fill="#84BE84" rx="3" ry="3" style="stroke:#038048;stroke-width:1.0;"/><text fill="#000000" font-family="sans-serif" font-size="14" lengthAdjust="spacing" textLength="261" x="730" y="368.667">vod removeProject(project: Project)</text><ellipse cx="721" cy="381.6172" fill="#84BE84" rx="3" ry="3" style="stroke:#038048;stroke-width:1.0;"/><text fill="#000000" font-family="sans-serif" font-size="14" lengthAdjust="spacing" textLength="308" x="730" y="384.9639">int searchForProject(projectName: String);</text><ellipse cx="721" cy="397.9141" fill="#84BE84" rx="3" ry="3" style="stroke:#038048;stroke-width:1.0;"/><text fill="#000000" font-family="sans-serif" font-size="14" lengthAdjust="spacing" textLength="377" x="730" y="401.2607">List&lt;Task&gt; getTasksInProject(projectName: String);</text><ellipse cx="721" cy="414.2109" fill="#84BE84" rx="3" ry="3" style="stroke:#038048;stroke-width:1.0;"/><text fill="#000000" font-family="sans-serif" font-size="14" lengthAdjust="spacing" textLength="244" x="730" y="417.5576">int searchTask(taskName: String);</text><rect fill="#F24D5C" height="6" style="stroke:#C82930;stroke-width:1.0;" width="6" x="718" y="427.5078"/><text fill="#000000" font-family="sans-serif" font-size="14" lengthAdjust="spacing" textLength="314" x="730" y="433.8545">int searchTaskWithTypo(taskName: String);</text><rect fill="#F24D5C" height="6" style="stroke:#C82930;stroke-width:1.0;" width="6" x="718" y="443.8047"/><text fill="#000000" font-family="sans-serif" font-size="14" lengthAdjust="spacing" textLength="575" x="730" y="450.1514">boolean hasSimilarName(inputTaskName: String, comparisonTaskName: String);</text></g><!--class ETaskStatus--><g id="elem_ETaskStatus"><rect codeLine="36" fill="#FEFECE" filter="url(#f117ij6bpa1w22)" height="96.8906" id="ETaskStatus" style="stroke:#A80036;stroke-width:1.0;" width="120" x="1254" y="790.2969"/><ellipse cx="1269" cy="806.2969" fill="#EB937F" rx="11" ry="11" style="stroke:#A80036;stroke-width:1.0;"/><path d="M1267.7969,807.1719 L1269.25,807.1719 L1269.25,807.2813 C1269.25,807.6875 1269.2813,807.8438 1269.3594,808 C1269.5156,808.25 1269.7969,808.4063 1270.0938,808.4063 C1270.3438,808.4063 1270.6094,808.2656 1270.7656,808.0469 C1270.8906,807.8906 1270.9219,807.7344 1270.9219,807.2813 L1270.9219,805.3594 C1270.9219,805.2031 1270.9219,805.1563 1270.9063,805 C1270.8438,804.5313 1270.5313,804.2188 1270.0781,804.2188 C1269.8281,804.2188 1269.5625,804.3594 1269.3906,804.5781 C1269.2813,804.75 1269.25,804.9063 1269.25,805.3594 L1269.25,805.4844 L1267.7969,805.4844 L1267.7969,803.0781 L1271.7813,803.0781 L1271.7813,803.9375 C1271.7813,804.3438 1271.8125,804.5156 1271.8906,804.6719 C1272.0625,804.9219 1272.3438,805.0781 1272.625,805.0781 C1272.8906,805.0781 1273.1563,804.9375 1273.3281,804.7188 C1273.4375,804.5469 1273.4688,804.4063 1273.4688,803.9375 L1273.4688,801.3906 L1265.8438,801.3906 C1265.4063,801.3906 1265.2813,801.4063 1265.125,801.5 C1264.875,801.6563 1264.7188,801.9531 1264.7188,802.2344 C1264.7188,802.5156 1264.8594,802.7656 1265.0781,802.9375 C1265.2344,803.0469 1265.4219,803.0781 1265.8438,803.0781 L1266.0938,803.0781 L1266.0938,809.5938 L1265.8438,809.5938 C1265.4375,809.5938 1265.2813,809.6094 1265.125,809.7188 C1264.875,809.8906 1264.7188,810.1563 1264.7188,810.4531 C1264.7188,810.7188 1264.8594,810.9688 1265.0781,811.125 C1265.2188,811.25 1265.4531,811.2969 1265.8438,811.2969 L1273.8438,811.2969 L1273.8438,808.7188 C1273.8438,808.2813 1273.8125,808.1406 1273.7344,807.9844 C1273.5625,807.7344 1273.2813,807.5781 1273,807.5781 C1272.7344,807.5781 1272.4688,807.6875 1272.2969,807.9375 C1272.1875,808.0938 1272.1563,808.2344 1272.1563,808.7188 L1272.1563,809.5938 L1267.7969,809.5938 L1267.7969,807.1719 Z " fill="#000000"/><text fill="#000000" font-family="sans-serif" font-size="14" lengthAdjust="spacing" textLength="88" x="1283" y="811.1436">ETaskStatus</text><line style="stroke:#A80036;stroke-width:1.0;" x1="1255" x2="1373" y1="822.2969" y2="822.2969"/><text fill="#000000" font-family="sans-serif" font-size="14" lengthAdjust="spacing" textLength="43" x="1260" y="839.292">OPEN,</text><text fill="#000000" font-family="sans-serif" font-size="14" lengthAdjust="spacing" textLength="103" x="1260" y="855.5889">IN_PROGRESS,</text><text fill="#000000" font-family="sans-serif" font-size="14" lengthAdjust="spacing" textLength="41" x="1260" y="871.8857">DONE</text><line style="stroke:#A80036;stroke-width:1.0;" x1="1255" x2="1373" y1="879.1875" y2="879.1875"/></g><!--class ECategory--><g id="elem_ECategory"><rect codeLine="42" fill="#FEFECE" filter="url(#f117ij6bpa1w22)" height="96.8906" id="ECategory" style="stroke:#A80036;stroke-width:1.0;" width="107" x="1409.5" y="790.2969"/><ellipse cx="1424.5" cy="806.2969" fill="#EB937F" rx="11" ry="11" style="stroke:#A80036;stroke-width:1.0;"/><path d="M1423.2969,807.1719 L1424.75,807.1719 L1424.75,807.2813 C1424.75,807.6875 1424.7813,807.8438 1424.8594,808 C1425.0156,808.25 1425.2969,808.4063 1425.5938,808.4063 C1425.8438,808.4063 1426.1094,808.2656 1426.2656,808.0469 C1426.3906,807.8906 1426.4219,807.7344 1426.4219,807.2813 L1426.4219,805.3594 C1426.4219,805.2031 1426.4219,805.1563 1426.4063,805 C1426.3438,804.5313 1426.0313,804.2188 1425.5781,804.2188 C1425.3281,804.2188 1425.0625,804.3594 1424.8906,804.5781 C1424.7813,804.75 1424.75,804.9063 1424.75,805.3594 L1424.75,805.4844 L1423.2969,805.4844 L1423.2969,803.0781 L1427.2813,803.0781 L1427.2813,803.9375 C1427.2813,804.3438 1427.3125,804.5156 1427.3906,804.6719 C1427.5625,804.9219 1427.8438,805.0781 1428.125,805.0781 C1428.3906,805.0781 1428.6563,804.9375 1428.8281,804.7188 C1428.9375,804.5469 1428.9688,804.4063 1428.9688,803.9375 L1428.9688,801.3906 L1421.3438,801.3906 C1420.9063,801.3906 1420.7813,801.4063 1420.625,801.5 C1420.375,801.6563 1420.2188,801.9531 1420.2188,802.2344 C1420.2188,802.5156 1420.3594,802.7656 1420.5781,802.9375 C1420.7344,803.0469 1420.9219,803.0781 1421.3438,803.0781 L1421.5938,803.0781 L1421.5938,809.5938 L1421.3438,809.5938 C1420.9375,809.5938 1420.7813,809.6094 1420.625,809.7188 C1420.375,809.8906 1420.2188,810.1563 1420.2188,810.4531 C1420.2188,810.7188 1420.3594,810.9688 1420.5781,811.125 C1420.7188,811.25 1420.9531,811.2969 1421.3438,811.2969 L1429.3438,811.2969 L1429.3438,808.7188 C1429.3438,808.2813 1429.3125,808.1406 1429.2344,807.9844 C1429.0625,807.7344 1428.7813,807.5781 1428.5,807.5781 C1428.2344,807.5781 1427.9688,807.6875 1427.7969,807.9375 C1427.6875,808.0938 1427.6563,808.2344 1427.6563,808.7188 L1427.6563,809.5938 L1423.2969,809.5938 L1423.2969,807.1719 Z " fill="#000000"/><text fill="#000000" font-family="sans-serif" font-size="14" lengthAdjust="spacing" textLength="75" x="1438.5" y="811.1436">ECategory</text><line style="stroke:#A80036;stroke-width:1.0;" x1="1410.5" x2="1515.5" y1="822.2969" y2="822.2969"/><text fill="#000000" font-family="sans-serif" font-size="14" lengthAdjust="spacing" textLength="49" x="1415.5" y="839.292">WORK,</text><text fill="#000000" font-family="sans-serif" font-size="14" lengthAdjust="spacing" textLength="65" x="1415.5" y="855.5889">PRIVATE,</text><text fill="#000000" font-family="sans-serif" font-size="14" lengthAdjust="spacing" textLength="61" x="1415.5" y="871.8857">FINANCE</text><line style="stroke:#A80036;stroke-width:1.0;" x1="1410.5" x2="1515.5" y1="879.1875" y2="879.1875"/></g><!--class User--><g id="elem_User"><rect codeLine="48" fill="#FEFECE" filter="url(#f117ij6bpa1w22)" height="243.5625" id="User" style="stroke:#A80036;stroke-width:1.0;" width="636" x="7" y="197.2969"/><ellipse cx="305.25" cy="213.2969" fill="#ADD1B2" rx="11" ry="11" style="stroke:#A80036;stroke-width:1.0;"/><path d="M307.5938,208.9688 C306.6563,208.5313 306.0625,208.3906 305.1875,208.3906 C302.5625,208.3906 300.5625,210.4688 300.5625,213.1875 L300.5625,214.3125 C300.5625,216.8906 302.6719,218.7813 305.5625,218.7813 C306.7813,218.7813 307.9375,218.4844 308.6875,217.9375 C309.2656,217.5313 309.5938,217.0781 309.5938,216.6875 C309.5938,216.2344 309.2031,215.8438 308.7344,215.8438 C308.5156,215.8438 308.3125,215.9219 308.125,216.1094 C307.6719,216.5938 307.6719,216.5938 307.4844,216.6875 C307.0625,216.9531 306.375,217.0781 305.6094,217.0781 C303.5625,217.0781 302.2656,215.9844 302.2656,214.2813 L302.2656,213.1875 C302.2656,211.4063 303.5156,210.0938 305.25,210.0938 C305.8281,210.0938 306.4375,210.25 306.9063,210.5 C307.3906,210.7813 307.5625,211 307.6563,211.4063 C307.7188,211.8125 307.75,211.9375 307.8906,212.0625 C308.0313,212.2031 308.2656,212.3125 308.4844,212.3125 C308.75,212.3125 309.0156,212.1719 309.1875,211.9531 C309.2969,211.7969 309.3281,211.6094 309.3281,211.1875 L309.3281,209.7656 C309.3281,209.3281 309.3125,209.2031 309.2188,209.0469 C309.0625,208.7813 308.7813,208.6406 308.4844,208.6406 C308.1875,208.6406 307.9844,208.7344 307.7656,209.0469 L307.5938,208.9688 Z " fill="#000000"/><text fill="#000000" font-family="sans-serif" font-size="14" lengthAdjust="spacing" textLength="31" x="325.75" y="218.1436">User</text><line style="stroke:#A80036;stroke-width:1.0;" x1="8" x2="642" y1="229.2969" y2="229.2969"/><rect fill="none" height="6" style="stroke:#C82930;stroke-width:1.0;" width="6" x="15" y="239.9453"/><text fill="#000000" font-family="sans-serif" font-size="14" lengthAdjust="spacing" textLength="124" x="27" y="246.292">String userName;</text><rect fill="none" height="6" style="stroke:#C82930;stroke-width:1.0;" width="6" x="15" y="256.2422"/><text fill="#000000" font-family="sans-serif" font-size="14" lengthAdjust="spacing" textLength="120" x="27" y="262.5889">String password;</text><rect fill="none" height="6" style="stroke:#C82930;stroke-width:1.0;" width="6" x="15" y="272.5391"/><text fill="#000000" font-family="sans-serif" font-size="14" lengthAdjust="spacing" textLength="92" x="27" y="278.8857">String email;</text><rect fill="none" height="6" style="stroke:#C82930;stroke-width:1.0;" width="6" x="15" y="288.8359"/><text fill="#000000" font-family="sans-serif" font-size="14" lengthAdjust="spacing" textLength="219" x="27" y="295.1826">TaskManager myTaskManager;</text><line style="stroke:#A80036;stroke-width:1.0;" x1="8" x2="642" y1="302.4844" y2="302.4844"/><ellipse cx="18" cy="316.1328" fill="#84BE84" rx="3" ry="3" style="stroke:#038048;stroke-width:1.0;"/><text fill="#000000" font-family="sans-serif" font-size="14" lengthAdjust="spacing" textLength="393" x="27" y="319.4795">User(userName: String, password: String, email: String)</text><ellipse cx="18" cy="332.4297" fill="#84BE84" rx="3" ry="3" style="stroke:#038048;stroke-width:1.0;"/><text fill="#000000" font-family="sans-serif" font-size="14" lengthAdjust="spacing" textLength="610" x="27" y="335.7764">void createNewTask(taskName: String, taskDescription: String, dueDate: LocalDate);</text><ellipse cx="18" cy="348.7266" fill="#84BE84" rx="3" ry="3" style="stroke:#038048;stroke-width:1.0;"/><text fill="#000000" font-family="sans-serif" font-size="14" lengthAdjust="spacing" textLength="358" x="27" y="352.0732">void assignCategoryToTask(category: ECategory);</text><ellipse cx="18" cy="365.0234" fill="#84BE84" rx="3" ry="3" style="stroke:#038048;stroke-width:1.0;"/><text fill="#000000" font-family="sans-serif" font-size="14" lengthAdjust="spacing" textLength="254" x="27" y="368.3701">void searchTask(taskName: String);</text><ellipse cx="18" cy="381.3203" fill="#84BE84" rx="3" ry="3" style="stroke:#038048;stroke-width:1.0;"/><text fill="#000000" font-family="sans-serif" font-size="14" lengthAdjust="spacing" textLength="232" x="27" y="384.667">void changeEmail(email: String);</text><ellipse cx="18" cy="397.6172" fill="#84BE84" rx="3" ry="3" style="stroke:#038048;stroke-width:1.0;"/><text fill="#000000" font-family="sans-serif" font-size="14" lengthAdjust="spacing" textLength="287" x="27" y="400.9639">void changePassword(password :String);</text><ellipse cx="18" cy="413.9141" fill="#84BE84" rx="3" ry="3" style="stroke:#038048;stroke-width:1.0;"/><text fill="#000000" font-family="sans-serif" font-size="14" lengthAdjust="spacing" textLength="295" x="27" y="417.2607">void createProject(projectName: String);</text><ellipse cx="18" cy="430.2109" fill="#84BE84" rx="3" ry="3" style="stroke:#038048;stroke-width:1.0;"/><text fill="#000000" font-family="sans-serif" font-size="14" lengthAdjust="spacing" textLength="358" x="27" y="433.5576">void addTaskToProject(taskID: int, projectID: int);</text></g><!--class Main--><g id="elem_Main"><rect codeLine="64" fill="#FEFECE" filter="url(#f117ij6bpa1w22)" height="64.2969" id="Main" style="stroke:#A80036;stroke-width:1.0;" width="203" x="223.5" y="44.2969"/><ellipse cx="304.25" cy="60.2969" fill="#ADD1B2" rx="11" ry="11" style="stroke:#A80036;stroke-width:1.0;"/><path d="M306.5938,55.9688 C305.6563,55.5313 305.0625,55.3906 304.1875,55.3906 C301.5625,55.3906 299.5625,57.4688 299.5625,60.1875 L299.5625,61.3125 C299.5625,63.8906 301.6719,65.7813 304.5625,65.7813 C305.7813,65.7813 306.9375,65.4844 307.6875,64.9375 C308.2656,64.5313 308.5938,64.0781 308.5938,63.6875 C308.5938,63.2344 308.2031,62.8438 307.7344,62.8438 C307.5156,62.8438 307.3125,62.9219 307.125,63.1094 C306.6719,63.5938 306.6719,63.5938 306.4844,63.6875 C306.0625,63.9531 305.375,64.0781 304.6094,64.0781 C302.5625,64.0781 301.2656,62.9844 301.2656,61.2813 L301.2656,60.1875 C301.2656,58.4063 302.5156,57.0938 304.25,57.0938 C304.8281,57.0938 305.4375,57.25 305.9063,57.5 C306.3906,57.7813 306.5625,58 306.6563,58.4063 C306.7188,58.8125 306.75,58.9375 306.8906,59.0625 C307.0313,59.2031 307.2656,59.3125 307.4844,59.3125 C307.75,59.3125 308.0156,59.1719 308.1875,58.9531 C308.2969,58.7969 308.3281,58.6094 308.3281,58.1875 L308.3281,56.7656 C308.3281,56.3281 308.3125,56.2031 308.2188,56.0469 C308.0625,55.7813 307.7813,55.6406 307.4844,55.6406 C307.1875,55.6406 306.9844,55.7344 306.7656,56.0469 L306.5938,55.9688 Z " fill="#000000"/><text fill="#000000" font-family="sans-serif" font-size="14" lengthAdjust="spacing" textLength="33" x="324.75" y="65.1436">Main</text><line style="stroke:#A80036;stroke-width:1.0;" x1="224.5" x2="425.5" y1="76.2969" y2="76.2969"/><line style="stroke:#A80036;stroke-width:1.0;" x1="224.5" x2="425.5" y1="84.2969" y2="84.2969"/><ellipse cx="234.5" cy="97.9453" fill="#84BE84" rx="3" ry="3" style="stroke:#038048;stroke-width:1.0;"/><text fill="#000000" font-family="sans-serif" font-size="14" lengthAdjust="spacing" text-decoration="underline" textLength="177" x="243.5" y="101.292">void main(args: String[]);</text></g><!--class Project--><g id="elem_Project"><rect codeLine="68" fill="#FEFECE" filter="url(#f117ij6bpa1w22)" height="162.0781" id="Project" style="stroke:#A80036;stroke-width:1.0;" width="240" x="756" y="550.7969"/><ellipse cx="845.75" cy="566.7969" fill="#ADD1B2" rx="11" ry="11" style="stroke:#A80036;stroke-width:1.0;"/><path d="M848.0938,562.4688 C847.1563,562.0313 846.5625,561.8906 845.6875,561.8906 C843.0625,561.8906 841.0625,563.9688 841.0625,566.6875 L841.0625,567.8125 C841.0625,570.3906 843.1719,572.2813 846.0625,572.2813 C847.2813,572.2813 848.4375,571.9844 849.1875,571.4375 C849.7656,571.0313 850.0938,570.5781 850.0938,570.1875 C850.0938,569.7344 849.7031,569.3438 849.2344,569.3438 C849.0156,569.3438 848.8125,569.4219 848.625,569.6094 C848.1719,570.0938 848.1719,570.0938 847.9844,570.1875 C847.5625,570.4531 846.875,570.5781 846.1094,570.5781 C844.0625,570.5781 842.7656,569.4844 842.7656,567.7813 L842.7656,566.6875 C842.7656,564.9063 844.0156,563.5938 845.75,563.5938 C846.3281,563.5938 846.9375,563.75 847.4063,564 C847.8906,564.2813 848.0625,564.5 848.1563,564.9063 C848.2188,565.3125 848.25,565.4375 848.3906,565.5625 C848.5313,565.7031 848.7656,565.8125 848.9844,565.8125 C849.25,565.8125 849.5156,565.6719 849.6875,565.4531 C849.7969,565.2969 849.8281,565.1094 849.8281,564.6875 L849.8281,563.2656 C849.8281,562.8281 849.8125,562.7031 849.7188,562.5469 C849.5625,562.2813 849.2813,562.1406 848.9844,562.1406 C848.6875,562.1406 848.4844,562.2344 848.2656,562.5469 L848.0938,562.4688 Z " fill="#000000"/><text fill="#000000" font-family="sans-serif" font-size="14" lengthAdjust="spacing" textLength="52" x="866.25" y="571.6436">Project</text><line style="stroke:#A80036;stroke-width:1.0;" x1="757" x2="995" y1="582.7969" y2="582.7969"/><rect fill="none" height="6" style="stroke:#C82930;stroke-width:1.0;" width="6" x="764" y="593.4453"/><text fill="#000000" font-family="sans-serif" font-size="14" lengthAdjust="spacing" textLength="97" x="776" y="599.792">int projectID;</text><rect fill="none" height="6" style="stroke:#C82930;stroke-width:1.0;" width="6" x="764" y="609.7422"/><text fill="#000000" font-family="sans-serif" font-size="14" lengthAdjust="spacing" textLength="147" x="776" y="616.0889">String projectName;</text><rect fill="none" height="6" style="stroke:#C82930;stroke-width:1.0;" width="6" x="764" y="626.0391"/><text fill="#000000" font-family="sans-serif" font-size="14" lengthAdjust="spacing" textLength="128" x="776" y="632.3857">List&lt;Task&gt; tasks;</text><line style="stroke:#A80036;stroke-width:1.0;" x1="757" x2="995" y1="639.6875" y2="639.6875"/><ellipse cx="767" cy="653.3359" fill="#84BE84" rx="3" ry="3" style="stroke:#038048;stroke-width:1.0;"/><text fill="#000000" font-family="sans-serif" font-size="14" lengthAdjust="spacing" textLength="214" x="776" y="656.6826">Project(projectName: String);</text><ellipse cx="767" cy="669.6328" fill="#84BE84" rx="3" ry="3" style="stroke:#038048;stroke-width:1.0;"/><text fill="#000000" font-family="sans-serif" font-size="14" lengthAdjust="spacing" textLength="181" x="776" y="672.9795">void addTask(task: Task);</text><ellipse cx="767" cy="685.9297" fill="#84BE84" rx="3" ry="3" style="stroke:#038048;stroke-width:1.0;"/><text fill="#000000" font-family="sans-serif" font-size="14" lengthAdjust="spacing" textLength="208" x="776" y="689.2764">void removeTask(task: task);</text><ellipse cx="767" cy="702.2266" fill="#84BE84" rx="3" ry="3" style="stroke:#038048;stroke-width:1.0;"/><text fill="#000000" font-family="sans-serif" font-size="14" lengthAdjust="spacing" textLength="191" x="776" y="705.5732">&lt;Task&gt; getProjectTasks();</text></g><!--link Main to User--><g id="link_Main_User"><path codeLine="79" d="M325,108.3099 C325,131.2569 325,164.1229 325,197.0609 " fill="none" id="Main-User" style="stroke:#A80036;stroke-width:1.0;"/><polygon fill="#000000" points="330,149.7969,332.9389,140.7518,327.0611,140.7518,330,149.7969" style="stroke:#000000;stroke-width:1.0;"/></g><!--link TaskManager to Task--><g id="link_TaskManager_Task"><path codeLine="80" d="M1186.95,457.3909 C1216.99,483.3029 1247.83,509.8989 1276.05,534.2379 " fill="none" id="TaskManager-Task" style="stroke:#A80036;stroke-width:1.0;"/><text fill="#000000" font-family="sans-serif" font-size="13" lengthAdjust="spacing" textLength="54" x="1242" y="500.3638">contains</text><text fill="#000000" font-family="sans-serif" font-size="13" lengthAdjust="spacing" textLength="8" x="1187.4238" y="477.4193">1</text><text fill="#000000" font-family="sans-serif" font-size="13" lengthAdjust="spacing" textLength="37" x="1229.0624" y="523.2788">many</text></g><!--link User to TaskManager--><g id="link_User_TaskManager"><path codeLine="81" d="M643.077,319.2969 C665.255,319.2969 687.613,319.2969 709.792,319.2969 " fill="none" id="User-TaskManager" style="stroke:#A80036;stroke-width:1.0;"/><text fill="#000000" font-family="sans-serif" font-size="13" lengthAdjust="spacing" textLength="30" x="661.5" y="312.3638">uses</text></g><!--link Task to ETaskStatus--><g id="link_Task_ETaskStatus"><path codeLine="82" d="M1353.06,729.5939 C1345.46,750.6389 1337.75,772.0049 1331.21,790.13 " fill="none" id="Task-ETaskStatus" style="stroke:#A80036;stroke-width:1.0;"/></g><!--link Task to ECategory--><g id="link_Task_ECategory"><path codeLine="83" d="M1423.41,729.5939 C1431.11,750.6389 1438.93,772.0049 1445.56,790.13 " fill="none" id="Task-ECategory" style="stroke:#A80036;stroke-width:1.0;"/></g><!--link TaskManager to Project--><g id="link_TaskManager_Project"><path codeLine="84" d="M960.888,457.3909 C945.301,489.2319 929.207,522.1069 915.28,550.5579 " fill="none" id="TaskManager-Project" style="stroke:#A80036;stroke-width:1.0;"/><text fill="#000000" font-family="sans-serif" font-size="13" lengthAdjust="spacing" textLength="54" x="944" y="500.3638">contains</text></g><!--link Project to Task--><g id="link_Project_Task"><path codeLine="85" d="M996.041,631.7969 C1023.82,631.7969 1054.62,631.7969 1086.38,631.7969 " fill="none" id="Project-Task" style="stroke:#A80036;stroke-width:1.0;"/><text fill="#000000" font-family="sans-serif" font-size="13" lengthAdjust="spacing" textLength="54" x="1014.25" y="624.8638">contains</text><text fill="#000000" font-family="sans-serif" font-size="13" lengthAdjust="spacing" textLength="8" x="1003.9874" y="628.3851">1</text><text fill="#000000" font-family="sans-serif" font-size="13" lengthAdjust="spacing" textLength="37" x="1041.8772" y="644.045">many</text></g><!--SRC=[hLNVQzim47xtNt7aoQNnm_Reb43Nk9lPueGaMn_669eZ7AssP2Ib9PJ-xzDlsqcsi348nD9zkllkqzr9F18Ad0aSHPB86iC6YKUuRLk8rn9L6DvUGG9tDH82PWHL73LD59LchQ4l4K12g0If5lbiefThoGcjp4w16doyDyEYvAILX55Z-iHALC-GnB3TO_slDpCLNUu528dsmiA8a3VPdR9NZ1-cKDelWerP_QurdzZoI45n6WSAATZuusC2dS75JY7GkT8-dnZP0jfkVTpOXJsa4BXSJGAIuuOzuGlWrmXw2iuHLJfp9MJo0OdT7BKtELLOpCV6FZMSTVQJSv0bPpznAQVGsWy7ZAmSpdciALg69SUAIO6VWrh_Bb1mkiKrblXOVsFNjL5XgMtl3ldin6u55e9KDCZcCEOAWuG3kSEzkFHZbttgzN0WVoE_XJc60YDUxkuPFmBsjJ4kJHNQQt5PYPnUEjH5E2kwnYH3p0EHkysXPUUnFnYhCQAmGs9D6b8ZhY4neUtUK1hUQCcQ5d4Y6DsSEdkD8apt3MJQPdjEj_HYcHLZzPyNtvUhnVjLjbxhvMnHPDqHVo7gmCDYzL41bglyo-qcKr_tUN5Rt1cmBVNFmjHuc0HxjJwU3gq2FZE-xU_X1f7QRFJg6Pf3R-NxNuU8lTykV- -rsp4-WmYXUVzpQvojxGqpplyyHIxKYgUxGxJ2cSub7cPqZ5aw1M8l1QIdI9FyXKhk-awJsp0F7mnTTxPhyb03SwGU6rq4rozghajIleBnfyZJ6F5A-5XVl_MFkIZXgGa11hNJCUwUYsv-XaVYhp8qYQLc39yC-PvT1dit6bmSCo5Ycur9FqbCAwGmZVe5FNepWcJK87eOcN2fQbigrG4HQNY_-5FTEyASrjvwdTlj-Q8Qn526fPz_mRlRiGJWB8DV]--></g></svg>