<?xml version="1.0" encoding="us-ascii" standalone="no"?><svg xmlns="http://www.w3.org/2000/svg" xmlns:xlink="http://www.w3.org/1999/xlink" contentStyleType="text/css" height="564px" preserveAspectRatio="none" style="width:2053px;height:564px;background:#FFFFFF;" version="1.1" viewBox="0 0 2053 564" width="2053px" zoomAndPan="magnify"><defs><filter height="300%" id="fu2aozu2cctof" width="300%" x="-1" y="-1"><feGaussianBlur result="blurOut" stdDeviation="2.0"/><feColorMatrix in="blurOut" result="blurOut2" type="matrix" values="0 0 0 0 0 0 0 0 0 0 0 0 0 0 0 0 0 0 .4 0"/><feOffset dx="4.0" dy="4.0" in="blurOut2" result="blurOut3"/><feBlend in="SourceGraphic" in2="blurOut3" mode="normal"/></filter></defs><g><text fill="#000000" font-family="sans-serif" font-size="14" font-weight="bold" lengthAdjust="spacing" textLength="302" x="868.75" y="22.9951">Task App (Stage 1) - Class Diagramm</text><!--class Task--><g id="elem_Task"><rect codeLine="5" fill="#FEFECE" filter="url(#fu2aozu2cctof)" height="194.6719" id="Task" style="stroke:#A80036;stroke-width:1.0;" width="603" x="1436.5" y="189.2969"/><ellipse cx="1717.25" cy="205.2969" fill="#ADD1B2" rx="11" ry="11" style="stroke:#A80036;stroke-width:1.0;"/><path d="M1719.5938,200.9688 C1718.6563,200.5313 1718.0625,200.3906 1717.1875,200.3906 C1714.5625,200.3906 1712.5625,202.4688 1712.5625,205.1875 L1712.5625,206.3125 C1712.5625,208.8906 1714.6719,210.7813 1717.5625,210.7813 C1718.7813,210.7813 1719.9375,210.4844 1720.6875,209.9375 C1721.2656,209.5313 1721.5938,209.0781 1721.5938,208.6875 C1721.5938,208.2344 1721.2031,207.8438 1720.7344,207.8438 C1720.5156,207.8438 1720.3125,207.9219 1720.125,208.1094 C1719.6719,208.5938 1719.6719,208.5938 1719.4844,208.6875 C1719.0625,208.9531 1718.375,209.0781 1717.6094,209.0781 C1715.5625,209.0781 1714.2656,207.9844 1714.2656,206.2813 L1714.2656,205.1875 C1714.2656,203.4063 1715.5156,202.0938 1717.25,202.0938 C1717.8281,202.0938 1718.4375,202.25 1718.9063,202.5 C1719.3906,202.7813 1719.5625,203 1719.6563,203.4063 C1719.7188,203.8125 1719.75,203.9375 1719.8906,204.0625 C1720.0313,204.2031 1720.2656,204.3125 1720.4844,204.3125 C1720.75,204.3125 1721.0156,204.1719 1721.1875,203.9531 C1721.2969,203.7969 1721.3281,203.6094 1721.3281,203.1875 L1721.3281,201.7656 C1721.3281,201.3281 1721.3125,201.2031 1721.2188,201.0469 C1721.0625,200.7813 1720.7813,200.6406 1720.4844,200.6406 C1720.1875,200.6406 1719.9844,200.7344 1719.7656,201.0469 L1719.5938,200.9688 Z " fill="#000000"/><text fill="#000000" font-family="sans-serif" font-size="14" lengthAdjust="spacing" textLength="33" x="1737.75" y="210.1436">Task</text><line style="stroke:#A80036;stroke-width:1.0;" x1="1437.5" x2="2038.5" y1="221.2969" y2="221.2969"/><rect fill="none" height="6" style="stroke:#C82930;stroke-width:1.0;" width="6" x="1444.5" y="231.9453"/><text fill="#000000" font-family="sans-serif" font-size="14" lengthAdjust="spacing" textLength="75" x="1456.5" y="238.292">int taskID;</text><rect fill="none" height="6" style="stroke:#C82930;stroke-width:1.0;" width="6" x="1444.5" y="248.2422"/><text fill="#000000" font-family="sans-serif" font-size="14" lengthAdjust="spacing" textLength="125" x="1456.5" y="254.5889">String taskName;</text><rect fill="none" height="6" style="stroke:#C82930;stroke-width:1.0;" width="6" x="1444.5" y="264.5391"/><text fill="#000000" font-family="sans-serif" font-size="14" lengthAdjust="spacing" textLength="168" x="1456.5" y="270.8857">String taskDescription;</text><rect fill="none" height="6" style="stroke:#C82930;stroke-width:1.0;" width="6" x="1444.5" y="280.8359"/><text fill="#000000" font-family="sans-serif" font-size="14" lengthAdjust="spacing" textLength="137" x="1456.5" y="287.1826">LocalDate dueDate</text><rect fill="none" height="6" style="stroke:#C82930;stroke-width:1.0;" width="6" x="1444.5" y="297.1328"/><text fill="#000000" font-family="sans-serif" font-size="14" lengthAdjust="spacing" textLength="101" x="1456.5" y="303.4795">EStatus staus;</text><rect fill="none" height="6" style="stroke:#C82930;stroke-width:1.0;" width="6" x="1444.5" y="313.4297"/><text fill="#000000" font-family="sans-serif" font-size="14" lengthAdjust="spacing" textLength="208" x="1456.5" y="319.7764">List&lt;ECategory&gt; categories;</text><line style="stroke:#A80036;stroke-width:1.0;" x1="1437.5" x2="2038.5" y1="327.0781" y2="327.0781"/><ellipse cx="1447.5" cy="340.7266" fill="#84BE84" rx="3" ry="3" style="stroke:#038048;stroke-width:1.0;"/><text fill="#000000" font-family="sans-serif" font-size="14" lengthAdjust="spacing" textLength="577" x="1456.5" y="344.0732">Task(taskID: int, taskName: String, taskDescription: String, dueDate: LocalDate)</text><ellipse cx="1447.5" cy="357.0234" fill="#84BE84" rx="3" ry="3" style="stroke:#038048;stroke-width:1.0;"/><text fill="#000000" font-family="sans-serif" font-size="14" lengthAdjust="spacing" textLength="289" x="1456.5" y="360.3701">void addCategory(category: ECategory);</text><ellipse cx="1447.5" cy="373.3203" fill="#84BE84" rx="3" ry="3" style="stroke:#038048;stroke-width:1.0;"/><text fill="#000000" font-family="sans-serif" font-size="14" lengthAdjust="spacing" textLength="318" x="1456.5" y="376.667">void removeCategory(category: ECategory);</text></g><!--class TaskManager--><g id="elem_TaskManager"><rect codeLine="18" fill="#FEFECE" filter="url(#fu2aozu2cctof)" height="194.6719" id="TaskManager" style="stroke:#A80036;stroke-width:1.0;" width="636" x="710" y="189.2969"/><ellipse cx="976.75" cy="205.2969" fill="#ADD1B2" rx="11" ry="11" style="stroke:#A80036;stroke-width:1.0;"/><path d="M979.0938,200.9688 C978.1563,200.5313 977.5625,200.3906 976.6875,200.3906 C974.0625,200.3906 972.0625,202.4688 972.0625,205.1875 L972.0625,206.3125 C972.0625,208.8906 974.1719,210.7813 977.0625,210.7813 C978.2813,210.7813 979.4375,210.4844 980.1875,209.9375 C980.7656,209.5313 981.0938,209.0781 981.0938,208.6875 C981.0938,208.2344 980.7031,207.8438 980.2344,207.8438 C980.0156,207.8438 979.8125,207.9219 979.625,208.1094 C979.1719,208.5938 979.1719,208.5938 978.9844,208.6875 C978.5625,208.9531 977.875,209.0781 977.1094,209.0781 C975.0625,209.0781 973.7656,207.9844 973.7656,206.2813 L973.7656,205.1875 C973.7656,203.4063 975.0156,202.0938 976.75,202.0938 C977.3281,202.0938 977.9375,202.25 978.4063,202.5 C978.8906,202.7813 979.0625,203 979.1563,203.4063 C979.2188,203.8125 979.25,203.9375 979.3906,204.0625 C979.5313,204.2031 979.7656,204.3125 979.9844,204.3125 C980.25,204.3125 980.5156,204.1719 980.6875,203.9531 C980.7969,203.7969 980.8281,203.6094 980.8281,203.1875 L980.8281,201.7656 C980.8281,201.3281 980.8125,201.2031 980.7188,201.0469 C980.5625,200.7813 980.2813,200.6406 979.9844,200.6406 C979.6875,200.6406 979.4844,200.7344 979.2656,201.0469 L979.0938,200.9688 Z " fill="#000000"/><text fill="#000000" font-family="sans-serif" font-size="14" lengthAdjust="spacing" textLength="94" x="997.25" y="210.1436">TaskManager</text><line style="stroke:#A80036;stroke-width:1.0;" x1="711" x2="1345" y1="221.2969" y2="221.2969"/><rect fill="none" height="6" style="stroke:#C82930;stroke-width:1.0;" width="6" x="718" y="231.9453"/><text fill="#000000" font-family="sans-serif" font-size="14" lengthAdjust="spacing" textLength="246" x="730" y="238.292">HashMap&lt;Integer, Task&gt; taskList;</text><line style="stroke:#A80036;stroke-width:1.0;" x1="711" x2="1345" y1="245.5938" y2="245.5938"/><ellipse cx="721" cy="259.2422" fill="#84BE84" rx="3" ry="3" style="stroke:#038048;stroke-width:1.0;"/><text fill="#000000" font-family="sans-serif" font-size="14" lengthAdjust="spacing" textLength="109" x="730" y="262.5889">TaskManager();</text><ellipse cx="721" cy="275.5391" fill="#84BE84" rx="3" ry="3" style="stroke:#038048;stroke-width:1.0;"/><text fill="#000000" font-family="sans-serif" font-size="14" lengthAdjust="spacing" textLength="610" x="730" y="278.8857">void createNewTask(taskName: String, taskDescription: String, dueDate: LocalDate);</text><ellipse cx="721" cy="291.8359" fill="#84BE84" rx="3" ry="3" style="stroke:#038048;stroke-width:1.0;"/><text fill="#000000" font-family="sans-serif" font-size="14" lengthAdjust="spacing" textLength="204" x="730" y="295.1826">void deleteTask(taskID: int);</text><ellipse cx="721" cy="308.1328" fill="#84BE84" rx="3" ry="3" style="stroke:#038048;stroke-width:1.0;"/><text fill="#000000" font-family="sans-serif" font-size="14" lengthAdjust="spacing" textLength="205" x="730" y="311.4795">int getTaskByID(taskID: int);</text><ellipse cx="721" cy="324.4297" fill="#84BE84" rx="3" ry="3" style="stroke:#038048;stroke-width:1.0;"/><text fill="#000000" font-family="sans-serif" font-size="14" lengthAdjust="spacing" textLength="348" x="730" y="327.7764">assignCategory(taskID:int, category:ECategory);</text><ellipse cx="721" cy="340.7266" fill="#84BE84" rx="3" ry="3" style="stroke:#038048;stroke-width:1.0;"/><text fill="#000000" font-family="sans-serif" font-size="14" lengthAdjust="spacing" textLength="244" x="730" y="344.0732">int searchTask(taskName: String);</text><rect fill="#F24D5C" height="6" style="stroke:#C82930;stroke-width:1.0;" width="6" x="718" y="354.0234"/><text fill="#000000" font-family="sans-serif" font-size="14" lengthAdjust="spacing" textLength="314" x="730" y="360.3701">int searchTaskWithTypo(taskName: String);</text><rect fill="#F24D5C" height="6" style="stroke:#C82930;stroke-width:1.0;" width="6" x="718" y="370.3203"/><text fill="#000000" font-family="sans-serif" font-size="14" lengthAdjust="spacing" textLength="575" x="730" y="376.667">boolean hasSimilarName(inputTaskName: String, comparisonTaskName: String);</text></g><!--class ETaskStatus--><g id="elem_ETaskStatus"><rect codeLine="31" fill="#FEFECE" filter="url(#fu2aozu2cctof)" height="96.8906" id="ETaskStatus" style="stroke:#A80036;stroke-width:1.0;" width="120" x="1604" y="453.2969"/><ellipse cx="1619" cy="469.2969" fill="#EB937F" rx="11" ry="11" style="stroke:#A80036;stroke-width:1.0;"/><path d="M1617.7969,470.1719 L1619.25,470.1719 L1619.25,470.2813 C1619.25,470.6875 1619.2813,470.8438 1619.3594,471 C1619.5156,471.25 1619.7969,471.4063 1620.0938,471.4063 C1620.3438,471.4063 1620.6094,471.2656 1620.7656,471.0469 C1620.8906,470.8906 1620.9219,470.7344 1620.9219,470.2813 L1620.9219,468.3594 C1620.9219,468.2031 1620.9219,468.1563 1620.9063,468 C1620.8438,467.5313 1620.5313,467.2188 1620.0781,467.2188 C1619.8281,467.2188 1619.5625,467.3594 1619.3906,467.5781 C1619.2813,467.75 1619.25,467.9063 1619.25,468.3594 L1619.25,468.4844 L1617.7969,468.4844 L1617.7969,466.0781 L1621.7813,466.0781 L1621.7813,466.9375 C1621.7813,467.3438 1621.8125,467.5156 1621.8906,467.6719 C1622.0625,467.9219 1622.3438,468.0781 1622.625,468.0781 C1622.8906,468.0781 1623.1563,467.9375 1623.3281,467.7188 C1623.4375,467.5469 1623.4688,467.4063 1623.4688,466.9375 L1623.4688,464.3906 L1615.8438,464.3906 C1615.4063,464.3906 1615.2813,464.4063 1615.125,464.5 C1614.875,464.6563 1614.7188,464.9531 1614.7188,465.2344 C1614.7188,465.5156 1614.8594,465.7656 1615.0781,465.9375 C1615.2344,466.0469 1615.4219,466.0781 1615.8438,466.0781 L1616.0938,466.0781 L1616.0938,472.5938 L1615.8438,472.5938 C1615.4375,472.5938 1615.2813,472.6094 1615.125,472.7188 C1614.875,472.8906 1614.7188,473.1563 1614.7188,473.4531 C1614.7188,473.7188 1614.8594,473.9688 1615.0781,474.125 C1615.2188,474.25 1615.4531,474.2969 1615.8438,474.2969 L1623.8438,474.2969 L1623.8438,471.7188 C1623.8438,471.2813 1623.8125,471.1406 1623.7344,470.9844 C1623.5625,470.7344 1623.2813,470.5781 1623,470.5781 C1622.7344,470.5781 1622.4688,470.6875 1622.2969,470.9375 C1622.1875,471.0938 1622.1563,471.2344 1622.1563,471.7188 L1622.1563,472.5938 L1617.7969,472.5938 L1617.7969,470.1719 Z " fill="#000000"/><text fill="#000000" font-family="sans-serif" font-size="14" lengthAdjust="spacing" textLength="88" x="1633" y="474.1436">ETaskStatus</text><line style="stroke:#A80036;stroke-width:1.0;" x1="1605" x2="1723" y1="485.2969" y2="485.2969"/><text fill="#000000" font-family="sans-serif" font-size="14" lengthAdjust="spacing" textLength="43" x="1610" y="502.292">OPEN,</text><text fill="#000000" font-family="sans-serif" font-size="14" lengthAdjust="spacing" textLength="103" x="1610" y="518.5889">IN_PROGRESS,</text><text fill="#000000" font-family="sans-serif" font-size="14" lengthAdjust="spacing" textLength="41" x="1610" y="534.8857">DONE</text><line style="stroke:#A80036;stroke-width:1.0;" x1="1605" x2="1723" y1="542.1875" y2="542.1875"/></g><!--class ECategory--><g id="elem_ECategory"><rect codeLine="37" fill="#FEFECE" filter="url(#fu2aozu2cctof)" height="96.8906" id="ECategory" style="stroke:#A80036;stroke-width:1.0;" width="107" x="1759.5" y="453.2969"/><ellipse cx="1774.5" cy="469.2969" fill="#EB937F" rx="11" ry="11" style="stroke:#A80036;stroke-width:1.0;"/><path d="M1773.2969,470.1719 L1774.75,470.1719 L1774.75,470.2813 C1774.75,470.6875 1774.7813,470.8438 1774.8594,471 C1775.0156,471.25 1775.2969,471.4063 1775.5938,471.4063 C1775.8438,471.4063 1776.1094,471.2656 1776.2656,471.0469 C1776.3906,470.8906 1776.4219,470.7344 1776.4219,470.2813 L1776.4219,468.3594 C1776.4219,468.2031 1776.4219,468.1563 1776.4063,468 C1776.3438,467.5313 1776.0313,467.2188 1775.5781,467.2188 C1775.3281,467.2188 1775.0625,467.3594 1774.8906,467.5781 C1774.7813,467.75 1774.75,467.9063 1774.75,468.3594 L1774.75,468.4844 L1773.2969,468.4844 L1773.2969,466.0781 L1777.2813,466.0781 L1777.2813,466.9375 C1777.2813,467.3438 1777.3125,467.5156 1777.3906,467.6719 C1777.5625,467.9219 1777.8438,468.0781 1778.125,468.0781 C1778.3906,468.0781 1778.6563,467.9375 1778.8281,467.7188 C1778.9375,467.5469 1778.9688,467.4063 1778.9688,466.9375 L1778.9688,464.3906 L1771.3438,464.3906 C1770.9063,464.3906 1770.7813,464.4063 1770.625,464.5 C1770.375,464.6563 1770.2188,464.9531 1770.2188,465.2344 C1770.2188,465.5156 1770.3594,465.7656 1770.5781,465.9375 C1770.7344,466.0469 1770.9219,466.0781 1771.3438,466.0781 L1771.5938,466.0781 L1771.5938,472.5938 L1771.3438,472.5938 C1770.9375,472.5938 1770.7813,472.6094 1770.625,472.7188 C1770.375,472.8906 1770.2188,473.1563 1770.2188,473.4531 C1770.2188,473.7188 1770.3594,473.9688 1770.5781,474.125 C1770.7188,474.25 1770.9531,474.2969 1771.3438,474.2969 L1779.3438,474.2969 L1779.3438,471.7188 C1779.3438,471.2813 1779.3125,471.1406 1779.2344,470.9844 C1779.0625,470.7344 1778.7813,470.5781 1778.5,470.5781 C1778.2344,470.5781 1777.9688,470.6875 1777.7969,470.9375 C1777.6875,471.0938 1777.6563,471.2344 1777.6563,471.7188 L1777.6563,472.5938 L1773.2969,472.5938 L1773.2969,470.1719 Z " fill="#000000"/><text fill="#000000" font-family="sans-serif" font-size="14" lengthAdjust="spacing" textLength="75" x="1788.5" y="474.1436">ECategory</text><line style="stroke:#A80036;stroke-width:1.0;" x1="1760.5" x2="1865.5" y1="485.2969" y2="485.2969"/><text fill="#000000" font-family="sans-serif" font-size="14" lengthAdjust="spacing" textLength="49" x="1765.5" y="502.292">WORK,</text><text fill="#000000" font-family="sans-serif" font-size="14" lengthAdjust="spacing" textLength="65" x="1765.5" y="518.5889">PRIVATE,</text><text fill="#000000" font-family="sans-serif" font-size="14" lengthAdjust="spacing" textLength="61" x="1765.5" y="534.8857">FINANCE</text><line style="stroke:#A80036;stroke-width:1.0;" x1="1760.5" x2="1865.5" y1="542.1875" y2="542.1875"/></g><!--class User--><g id="elem_User"><rect codeLine="43" fill="#FEFECE" filter="url(#fu2aozu2cctof)" height="210.9688" id="User" style="stroke:#A80036;stroke-width:1.0;" width="636" x="7" y="181.2969"/><ellipse cx="305.25" cy="197.2969" fill="#ADD1B2" rx="11" ry="11" style="stroke:#A80036;stroke-width:1.0;"/><path d="M307.5938,192.9688 C306.6563,192.5313 306.0625,192.3906 305.1875,192.3906 C302.5625,192.3906 300.5625,194.4688 300.5625,197.1875 L300.5625,198.3125 C300.5625,200.8906 302.6719,202.7813 305.5625,202.7813 C306.7813,202.7813 307.9375,202.4844 308.6875,201.9375 C309.2656,201.5313 309.5938,201.0781 309.5938,200.6875 C309.5938,200.2344 309.2031,199.8438 308.7344,199.8438 C308.5156,199.8438 308.3125,199.9219 308.125,200.1094 C307.6719,200.5938 307.6719,200.5938 307.4844,200.6875 C307.0625,200.9531 306.375,201.0781 305.6094,201.0781 C303.5625,201.0781 302.2656,199.9844 302.2656,198.2813 L302.2656,197.1875 C302.2656,195.4063 303.5156,194.0938 305.25,194.0938 C305.8281,194.0938 306.4375,194.25 306.9063,194.5 C307.3906,194.7813 307.5625,195 307.6563,195.4063 C307.7188,195.8125 307.75,195.9375 307.8906,196.0625 C308.0313,196.2031 308.2656,196.3125 308.4844,196.3125 C308.75,196.3125 309.0156,196.1719 309.1875,195.9531 C309.2969,195.7969 309.3281,195.6094 309.3281,195.1875 L309.3281,193.7656 C309.3281,193.3281 309.3125,193.2031 309.2188,193.0469 C309.0625,192.7813 308.7813,192.6406 308.4844,192.6406 C308.1875,192.6406 307.9844,192.7344 307.7656,193.0469 L307.5938,192.9688 Z " fill="#000000"/><text fill="#000000" font-family="sans-serif" font-size="14" lengthAdjust="spacing" textLength="31" x="325.75" y="202.1436">User</text><line style="stroke:#A80036;stroke-width:1.0;" x1="8" x2="642" y1="213.2969" y2="213.2969"/><rect fill="none" height="6" style="stroke:#C82930;stroke-width:1.0;" width="6" x="15" y="223.9453"/><text fill="#000000" font-family="sans-serif" font-size="14" lengthAdjust="spacing" textLength="124" x="27" y="230.292">String userName;</text><rect fill="none" height="6" style="stroke:#C82930;stroke-width:1.0;" width="6" x="15" y="240.2422"/><text fill="#000000" font-family="sans-serif" font-size="14" lengthAdjust="spacing" textLength="120" x="27" y="246.5889">String password;</text><rect fill="none" height="6" style="stroke:#C82930;stroke-width:1.0;" width="6" x="15" y="256.5391"/><text fill="#000000" font-family="sans-serif" font-size="14" lengthAdjust="spacing" textLength="92" x="27" y="262.8857">String email;</text><rect fill="none" height="6" style="stroke:#C82930;stroke-width:1.0;" width="6" x="15" y="272.8359"/><text fill="#000000" font-family="sans-serif" font-size="14" lengthAdjust="spacing" textLength="219" x="27" y="279.1826">TaskManager myTaskManager;</text><line style="stroke:#A80036;stroke-width:1.0;" x1="8" x2="642" y1="286.4844" y2="286.4844"/><ellipse cx="18" cy="300.1328" fill="#84BE84" rx="3" ry="3" style="stroke:#038048;stroke-width:1.0;"/><text fill="#000000" font-family="sans-serif" font-size="14" lengthAdjust="spacing" textLength="393" x="27" y="303.4795">User(userName: String, password: String, email: String)</text><ellipse cx="18" cy="316.4297" fill="#84BE84" rx="3" ry="3" style="stroke:#038048;stroke-width:1.0;"/><text fill="#000000" font-family="sans-serif" font-size="14" lengthAdjust="spacing" textLength="610" x="27" y="319.7764">void createNewTask(taskName: String, taskDescription: String, dueDate: LocalDate);</text><ellipse cx="18" cy="332.7266" fill="#84BE84" rx="3" ry="3" style="stroke:#038048;stroke-width:1.0;"/><text fill="#000000" font-family="sans-serif" font-size="14" lengthAdjust="spacing" textLength="358" x="27" y="336.0732">void assignCategoryToTask(category: ECategory);</text><ellipse cx="18" cy="349.0234" fill="#84BE84" rx="3" ry="3" style="stroke:#038048;stroke-width:1.0;"/><text fill="#000000" font-family="sans-serif" font-size="14" lengthAdjust="spacing" textLength="254" x="27" y="352.3701">void searchTask(taskName: String);</text><ellipse cx="18" cy="365.3203" fill="#84BE84" rx="3" ry="3" style="stroke:#038048;stroke-width:1.0;"/><text fill="#000000" font-family="sans-serif" font-size="14" lengthAdjust="spacing" textLength="232" x="27" y="368.667">void changeEmail(email: String);</text><ellipse cx="18" cy="381.6172" fill="#84BE84" rx="3" ry="3" style="stroke:#038048;stroke-width:1.0;"/><text fill="#000000" font-family="sans-serif" font-size="14" lengthAdjust="spacing" textLength="287" x="27" y="384.9639">void changePassword(password :String);</text></g><!--class Main--><g id="elem_Main"><rect codeLine="57" fill="#FEFECE" filter="url(#fu2aozu2cctof)" height="64.2969" id="Main" style="stroke:#A80036;stroke-width:1.0;" width="203" x="223.5" y="44.2969"/><ellipse cx="304.25" cy="60.2969" fill="#ADD1B2" rx="11" ry="11" style="stroke:#A80036;stroke-width:1.0;"/><path d="M306.5938,55.9688 C305.6563,55.5313 305.0625,55.3906 304.1875,55.3906 C301.5625,55.3906 299.5625,57.4688 299.5625,60.1875 L299.5625,61.3125 C299.5625,63.8906 301.6719,65.7813 304.5625,65.7813 C305.7813,65.7813 306.9375,65.4844 307.6875,64.9375 C308.2656,64.5313 308.5938,64.0781 308.5938,63.6875 C308.5938,63.2344 308.2031,62.8438 307.7344,62.8438 C307.5156,62.8438 307.3125,62.9219 307.125,63.1094 C306.6719,63.5938 306.6719,63.5938 306.4844,63.6875 C306.0625,63.9531 305.375,64.0781 304.6094,64.0781 C302.5625,64.0781 301.2656,62.9844 301.2656,61.2813 L301.2656,60.1875 C301.2656,58.4063 302.5156,57.0938 304.25,57.0938 C304.8281,57.0938 305.4375,57.25 305.9063,57.5 C306.3906,57.7813 306.5625,58 306.6563,58.4063 C306.7188,58.8125 306.75,58.9375 306.8906,59.0625 C307.0313,59.2031 307.2656,59.3125 307.4844,59.3125 C307.75,59.3125 308.0156,59.1719 308.1875,58.9531 C308.2969,58.7969 308.3281,58.6094 308.3281,58.1875 L308.3281,56.7656 C308.3281,56.3281 308.3125,56.2031 308.2188,56.0469 C308.0625,55.7813 307.7813,55.6406 307.4844,55.6406 C307.1875,55.6406 306.9844,55.7344 306.7656,56.0469 L306.5938,55.9688 Z " fill="#000000"/><text fill="#000000" font-family="sans-serif" font-size="14" lengthAdjust="spacing" textLength="33" x="324.75" y="65.1436">Main</text><line style="stroke:#A80036;stroke-width:1.0;" x1="224.5" x2="425.5" y1="76.2969" y2="76.2969"/><line style="stroke:#A80036;stroke-width:1.0;" x1="224.5" x2="425.5" y1="84.2969" y2="84.2969"/><ellipse cx="234.5" cy="97.9453" fill="#84BE84" rx="3" ry="3" style="stroke:#038048;stroke-width:1.0;"/><text fill="#000000" font-family="sans-serif" font-size="14" lengthAdjust="spacing" text-decoration="underline" textLength="177" x="243.5" y="101.292">void main(args: String[]);</text></g><!--link Main to User--><g id="link_Main_User"><path codeLine="61" d="M325,108.5119 C325,128.0509 325,154.4699 325,180.9409 " fill="none" id="Main-User" style="stroke:#A80036;stroke-width:1.0;"/><polygon fill="#000000" points="330,149.7969,332.9389,140.7518,327.0611,140.7518,330,149.7969" style="stroke:#000000;stroke-width:1.0;"/></g><!--link TaskManager to Task--><g id="link_TaskManager_Task"><path codeLine="62" d="M1346.14,286.7969 C1376.11,286.7969 1406.44,286.7969 1436.26,286.7969 " fill="none" id="TaskManager-Task" style="stroke:#A80036;stroke-width:1.0;"/><text fill="#000000" font-family="sans-serif" font-size="13" lengthAdjust="spacing" textLength="54" x="1364.25" y="279.8638">contains</text><text fill="#000000" font-family="sans-serif" font-size="13" lengthAdjust="spacing" textLength="8" x="1353.6902" y="283.6934">1</text><text fill="#000000" font-family="sans-serif" font-size="13" lengthAdjust="spacing" textLength="37" x="1391.7544" y="299.045">many</text></g><!--link User to TaskManager--><g id="link_User_TaskManager"><path codeLine="63" d="M643.077,286.7969 C665.255,286.7969 687.613,286.7969 709.792,286.7969 " fill="none" id="User-TaskManager" style="stroke:#A80036;stroke-width:1.0;"/><text fill="#000000" font-family="sans-serif" font-size="13" lengthAdjust="spacing" textLength="30" x="661.5" y="279.8638">uses</text></g><!--link Task to ETaskStatus--><g id="link_Task_ETaskStatus"><path codeLine="64" d="M1704.46,384.3259 C1696.17,408.2109 1687.63,432.7719 1680.56,453.1447 " fill="none" id="Task-ETaskStatus" style="stroke:#A80036;stroke-width:1.0;"/></g><!--link Task to ECategory--><g id="link_Task_ECategory"><path codeLine="65" d="M1771.99,384.3259 C1780.4,408.2109 1789.05,432.7719 1796.22,453.1447 " fill="none" id="Task-ECategory" style="stroke:#A80036;stroke-width:1.0;"/></g><!--SRC=[hLHTQzim57tNhxZaoQ7nGr_T4iXYRpDRd91awyCOuyuMZgWj6KbkCIN_VP8SAqvQLXW3Wwrxp_qwzyZgaN6GGb52DDCLXJsgHrWq3GGxZIM5soc4iAnGAOWPbXBhcf3SdItqXG24Z6lGvf36T_QuqvBnqbaohEcrBQOgbwpHJ73d-Yfoh6BK58gMshSr9gQwRXKeZQtgOKpf-sHf_AMGtHpo_ejHvpRFZUqdwFk8mFGqyor4qDUVNJTmTfngH-3RcTgSJu8LW4Knr0rEPRi8V2_JEu-Kj1PFz1tmaS28mHLomxCqH8QVKHrMsDodt62fd3d_tFLifpTbI3_bAIQmbVl2kQIcG4QVFGd_FhTFMj2AQdfDg_FRbPTKMz-7BerV-SrqhEIUY9FRBSMJSa6WowWeolpmvWWM4rvY7fW-xBj6l8tzBKH5aSC1rOxLh49f8G7ZJUlQlkGd5tM3aYd1zw-J7GcXlAqXiRvUc5RtwqsIpSmxpNvjjkjFssItiyTudINda6564_2mtdunWCqs_RxO9-RhOvejigK3zthuffmG_7LfpVdw2ZK6-2naCRRH6bdb32DrGDsDJiCbiIM28Uzv_Y7hsU9oUXAyml-pq8ORTY6NlN39_txLtj7AqEu1UKaJEqjmET4rPdDY81YeW6WiW7v1ApI_IxkXcnVpPz8iFu9BOJBp06MfXlG_VlPXBY0CtMOZc9FnVYQt4mWdDV9kucvwP5J8jGbGnCB7kuoi59IBjjb6GZpR1ex-0000]--></g></svg>