<?xml version="1.0" encoding="us-ascii" standalone="no"?><svg xmlns="http://www.w3.org/2000/svg" xmlns:xlink="http://www.w3.org/1999/xlink" contentStyleType="text/css" height="938px" preserveAspectRatio="none" style="width:2417px;height:938px;background:#FFFFFF;" version="1.1" viewBox="0 0 2417 938" width="2417px" zoomAndPan="magnify"><defs><filter height="300%" id="f9qfg2x90kkl8" width="300%" x="-1" y="-1"><feGaussianBlur result="blurOut" stdDeviation="2.0"/><feColorMatrix in="blurOut" result="blurOut2" type="matrix" values="0 0 0 0 0 0 0 0 0 0 0 0 0 0 0 0 0 0 .4 0"/><feOffset dx="4.0" dy="4.0" in="blurOut2" result="blurOut3"/><feBlend in="SourceGraphic" in2="blurOut3" mode="normal"/></filter></defs><g><text fill="#000000" font-family="sans-serif" font-size="14" font-weight="bold" lengthAdjust="spacing" textLength="302" x="1050.5" y="22.9951">Task App (Stage 3) - Class Diagramm</text><!--class Task--><g id="elem_Task"><rect codeLine="5" fill="#FEFECE" filter="url(#f9qfg2x90kkl8)" height="194.6719" id="Task" style="stroke:#A80036;stroke-width:1.0;" width="603" x="1800" y="571.2969"/><ellipse cx="2080.75" cy="587.2969" fill="#ADD1B2" rx="11" ry="11" style="stroke:#A80036;stroke-width:1.0;"/><path d="M2083.0938,582.9688 C2082.1563,582.5313 2081.5625,582.3906 2080.6875,582.3906 C2078.0625,582.3906 2076.0625,584.4688 2076.0625,587.1875 L2076.0625,588.3125 C2076.0625,590.8906 2078.1719,592.7813 2081.0625,592.7813 C2082.2813,592.7813 2083.4375,592.4844 2084.1875,591.9375 C2084.7656,591.5313 2085.0938,591.0781 2085.0938,590.6875 C2085.0938,590.2344 2084.7031,589.8438 2084.2344,589.8438 C2084.0156,589.8438 2083.8125,589.9219 2083.625,590.1094 C2083.1719,590.5938 2083.1719,590.5938 2082.9844,590.6875 C2082.5625,590.9531 2081.875,591.0781 2081.1094,591.0781 C2079.0625,591.0781 2077.7656,589.9844 2077.7656,588.2813 L2077.7656,587.1875 C2077.7656,585.4063 2079.0156,584.0938 2080.75,584.0938 C2081.3281,584.0938 2081.9375,584.25 2082.4063,584.5 C2082.8906,584.7813 2083.0625,585 2083.1563,585.4063 C2083.2188,585.8125 2083.25,585.9375 2083.3906,586.0625 C2083.5313,586.2031 2083.7656,586.3125 2083.9844,586.3125 C2084.25,586.3125 2084.5156,586.1719 2084.6875,585.9531 C2084.7969,585.7969 2084.8281,585.6094 2084.8281,585.1875 L2084.8281,583.7656 C2084.8281,583.3281 2084.8125,583.2031 2084.7188,583.0469 C2084.5625,582.7813 2084.2813,582.6406 2083.9844,582.6406 C2083.6875,582.6406 2083.4844,582.7344 2083.2656,583.0469 L2083.0938,582.9688 Z " fill="#000000"/><text fill="#000000" font-family="sans-serif" font-size="14" lengthAdjust="spacing" textLength="33" x="2101.25" y="592.1436">Task</text><line style="stroke:#A80036;stroke-width:1.0;" x1="1801" x2="2402" y1="603.2969" y2="603.2969"/><rect fill="none" height="6" style="stroke:#C82930;stroke-width:1.0;" width="6" x="1808" y="613.9453"/><text fill="#000000" font-family="sans-serif" font-size="14" lengthAdjust="spacing" textLength="75" x="1820" y="620.292">int taskID;</text><rect fill="none" height="6" style="stroke:#C82930;stroke-width:1.0;" width="6" x="1808" y="630.2422"/><text fill="#000000" font-family="sans-serif" font-size="14" lengthAdjust="spacing" textLength="125" x="1820" y="636.5889">String taskName;</text><rect fill="none" height="6" style="stroke:#C82930;stroke-width:1.0;" width="6" x="1808" y="646.5391"/><text fill="#000000" font-family="sans-serif" font-size="14" lengthAdjust="spacing" textLength="168" x="1820" y="652.8857">String taskDescription;</text><rect fill="none" height="6" style="stroke:#C82930;stroke-width:1.0;" width="6" x="1808" y="662.8359"/><text fill="#000000" font-family="sans-serif" font-size="14" lengthAdjust="spacing" textLength="137" x="1820" y="669.1826">LocalDate dueDate</text><rect fill="none" height="6" style="stroke:#C82930;stroke-width:1.0;" width="6" x="1808" y="679.1328"/><text fill="#000000" font-family="sans-serif" font-size="14" lengthAdjust="spacing" textLength="101" x="1820" y="685.4795">EStatus staus;</text><rect fill="none" height="6" style="stroke:#C82930;stroke-width:1.0;" width="6" x="1808" y="695.4297"/><text fill="#000000" font-family="sans-serif" font-size="14" lengthAdjust="spacing" textLength="208" x="1820" y="701.7764">List&lt;ECategory&gt; categories;</text><line style="stroke:#A80036;stroke-width:1.0;" x1="1801" x2="2402" y1="709.0781" y2="709.0781"/><ellipse cx="1811" cy="722.7266" fill="#84BE84" rx="3" ry="3" style="stroke:#038048;stroke-width:1.0;"/><text fill="#000000" font-family="sans-serif" font-size="14" lengthAdjust="spacing" textLength="577" x="1820" y="726.0732">Task(taskID: int, taskName: String, taskDescription: String, dueDate: LocalDate)</text><ellipse cx="1811" cy="739.0234" fill="#84BE84" rx="3" ry="3" style="stroke:#038048;stroke-width:1.0;"/><text fill="#000000" font-family="sans-serif" font-size="14" lengthAdjust="spacing" textLength="289" x="1820" y="742.3701">void addCategory(category: ECategory);</text><ellipse cx="1811" cy="755.3203" fill="#84BE84" rx="3" ry="3" style="stroke:#038048;stroke-width:1.0;"/><text fill="#000000" font-family="sans-serif" font-size="14" lengthAdjust="spacing" textLength="318" x="1820" y="758.667">void removeCategory(category: ECategory);</text></g><!--class TaskManager--><g id="elem_TaskManager"><rect codeLine="18" fill="#FEFECE" filter="url(#f9qfg2x90kkl8)" height="276.1563" id="TaskManager" style="stroke:#A80036;stroke-width:1.0;" width="636" x="1423.5" y="201.7969"/><ellipse cx="1690.25" cy="217.7969" fill="#ADD1B2" rx="11" ry="11" style="stroke:#A80036;stroke-width:1.0;"/><path d="M1692.5938,213.4688 C1691.6563,213.0313 1691.0625,212.8906 1690.1875,212.8906 C1687.5625,212.8906 1685.5625,214.9688 1685.5625,217.6875 L1685.5625,218.8125 C1685.5625,221.3906 1687.6719,223.2813 1690.5625,223.2813 C1691.7813,223.2813 1692.9375,222.9844 1693.6875,222.4375 C1694.2656,222.0313 1694.5938,221.5781 1694.5938,221.1875 C1694.5938,220.7344 1694.2031,220.3438 1693.7344,220.3438 C1693.5156,220.3438 1693.3125,220.4219 1693.125,220.6094 C1692.6719,221.0938 1692.6719,221.0938 1692.4844,221.1875 C1692.0625,221.4531 1691.375,221.5781 1690.6094,221.5781 C1688.5625,221.5781 1687.2656,220.4844 1687.2656,218.7813 L1687.2656,217.6875 C1687.2656,215.9063 1688.5156,214.5938 1690.25,214.5938 C1690.8281,214.5938 1691.4375,214.75 1691.9063,215 C1692.3906,215.2813 1692.5625,215.5 1692.6563,215.9063 C1692.7188,216.3125 1692.75,216.4375 1692.8906,216.5625 C1693.0313,216.7031 1693.2656,216.8125 1693.4844,216.8125 C1693.75,216.8125 1694.0156,216.6719 1694.1875,216.4531 C1694.2969,216.2969 1694.3281,216.1094 1694.3281,215.6875 L1694.3281,214.2656 C1694.3281,213.8281 1694.3125,213.7031 1694.2188,213.5469 C1694.0625,213.2813 1693.7813,213.1406 1693.4844,213.1406 C1693.1875,213.1406 1692.9844,213.2344 1692.7656,213.5469 L1692.5938,213.4688 Z " fill="#000000"/><text fill="#000000" font-family="sans-serif" font-size="14" lengthAdjust="spacing" textLength="94" x="1710.75" y="222.6436">TaskManager</text><line style="stroke:#A80036;stroke-width:1.0;" x1="1424.5" x2="2058.5" y1="233.7969" y2="233.7969"/><rect fill="none" height="6" style="stroke:#C82930;stroke-width:1.0;" width="6" x="1431.5" y="244.4453"/><text fill="#000000" font-family="sans-serif" font-size="14" lengthAdjust="spacing" textLength="246" x="1443.5" y="250.792">HashMap&lt;Integer, Task&gt; taskList;</text><rect fill="none" height="6" style="stroke:#C82930;stroke-width:1.0;" width="6" x="1431.5" y="260.7422"/><text fill="#000000" font-family="sans-serif" font-size="14" lengthAdjust="spacing" textLength="287" x="1443.5" y="267.0889">HashMap&lt;Integer, Project&gt; projectList;</text><line style="stroke:#A80036;stroke-width:1.0;" x1="1424.5" x2="2058.5" y1="274.3906" y2="274.3906"/><ellipse cx="1434.5" cy="288.0391" fill="#84BE84" rx="3" ry="3" style="stroke:#038048;stroke-width:1.0;"/><text fill="#000000" font-family="sans-serif" font-size="14" lengthAdjust="spacing" textLength="109" x="1443.5" y="291.3857">TaskManager();</text><ellipse cx="1434.5" cy="304.3359" fill="#84BE84" rx="3" ry="3" style="stroke:#038048;stroke-width:1.0;"/><text fill="#000000" font-family="sans-serif" font-size="14" lengthAdjust="spacing" textLength="610" x="1443.5" y="307.6826">void createNewTask(taskName: String, taskDescription: String, dueDate: LocalDate);</text><ellipse cx="1434.5" cy="320.6328" fill="#84BE84" rx="3" ry="3" style="stroke:#038048;stroke-width:1.0;"/><text fill="#000000" font-family="sans-serif" font-size="14" lengthAdjust="spacing" textLength="204" x="1443.5" y="323.9795">void deleteTask(taskID: int);</text><ellipse cx="1434.5" cy="336.9297" fill="#84BE84" rx="3" ry="3" style="stroke:#038048;stroke-width:1.0;"/><text fill="#000000" font-family="sans-serif" font-size="14" lengthAdjust="spacing" textLength="205" x="1443.5" y="340.2764">int getTaskByID(taskID: int);</text><ellipse cx="1434.5" cy="353.2266" fill="#84BE84" rx="3" ry="3" style="stroke:#038048;stroke-width:1.0;"/><text fill="#000000" font-family="sans-serif" font-size="14" lengthAdjust="spacing" textLength="382" x="1443.5" y="356.5732">void assignCategory(taskID:int, category:ECategory);</text><ellipse cx="1434.5" cy="369.5234" fill="#84BE84" rx="3" ry="3" style="stroke:#038048;stroke-width:1.0;"/><text fill="#000000" font-family="sans-serif" font-size="14" lengthAdjust="spacing" textLength="241" x="1443.5" y="372.8701">void addProject(project: Project);</text><ellipse cx="1434.5" cy="385.8203" fill="#84BE84" rx="3" ry="3" style="stroke:#038048;stroke-width:1.0;"/><text fill="#000000" font-family="sans-serif" font-size="14" lengthAdjust="spacing" textLength="261" x="1443.5" y="389.167">vod removeProject(project: Project)</text><ellipse cx="1434.5" cy="402.1172" fill="#84BE84" rx="3" ry="3" style="stroke:#038048;stroke-width:1.0;"/><text fill="#000000" font-family="sans-serif" font-size="14" lengthAdjust="spacing" textLength="308" x="1443.5" y="405.4639">int searchForProject(projectName: String);</text><ellipse cx="1434.5" cy="418.4141" fill="#84BE84" rx="3" ry="3" style="stroke:#038048;stroke-width:1.0;"/><text fill="#000000" font-family="sans-serif" font-size="14" lengthAdjust="spacing" textLength="377" x="1443.5" y="421.7607">List&lt;Task&gt; getTasksInProject(projectName: String);</text><ellipse cx="1434.5" cy="434.7109" fill="#84BE84" rx="3" ry="3" style="stroke:#038048;stroke-width:1.0;"/><text fill="#000000" font-family="sans-serif" font-size="14" lengthAdjust="spacing" textLength="244" x="1443.5" y="438.0576">int searchTask(taskName: String);</text><rect fill="#F24D5C" height="6" style="stroke:#C82930;stroke-width:1.0;" width="6" x="1431.5" y="448.0078"/><text fill="#000000" font-family="sans-serif" font-size="14" lengthAdjust="spacing" textLength="314" x="1443.5" y="454.3545">int searchTaskWithTypo(taskName: String);</text><rect fill="#F24D5C" height="6" style="stroke:#C82930;stroke-width:1.0;" width="6" x="1431.5" y="464.3047"/><text fill="#000000" font-family="sans-serif" font-size="14" lengthAdjust="spacing" textLength="575" x="1443.5" y="470.6514">boolean hasSimilarName(inputTaskName: String, comparisonTaskName: String);</text></g><!--class ETaskStatus--><g id="elem_ETaskStatus"><rect codeLine="36" fill="#FEFECE" filter="url(#f9qfg2x90kkl8)" height="96.8906" id="ETaskStatus" style="stroke:#A80036;stroke-width:1.0;" width="120" x="1967.5" y="827.2969"/><ellipse cx="1982.5" cy="843.2969" fill="#EB937F" rx="11" ry="11" style="stroke:#A80036;stroke-width:1.0;"/><path d="M1981.2969,844.1719 L1982.75,844.1719 L1982.75,844.2813 C1982.75,844.6875 1982.7813,844.8438 1982.8594,845 C1983.0156,845.25 1983.2969,845.4063 1983.5938,845.4063 C1983.8438,845.4063 1984.1094,845.2656 1984.2656,845.0469 C1984.3906,844.8906 1984.4219,844.7344 1984.4219,844.2813 L1984.4219,842.3594 C1984.4219,842.2031 1984.4219,842.1563 1984.4063,842 C1984.3438,841.5313 1984.0313,841.2188 1983.5781,841.2188 C1983.3281,841.2188 1983.0625,841.3594 1982.8906,841.5781 C1982.7813,841.75 1982.75,841.9063 1982.75,842.3594 L1982.75,842.4844 L1981.2969,842.4844 L1981.2969,840.0781 L1985.2813,840.0781 L1985.2813,840.9375 C1985.2813,841.3438 1985.3125,841.5156 1985.3906,841.6719 C1985.5625,841.9219 1985.8438,842.0781 1986.125,842.0781 C1986.3906,842.0781 1986.6563,841.9375 1986.8281,841.7188 C1986.9375,841.5469 1986.9688,841.4063 1986.9688,840.9375 L1986.9688,838.3906 L1979.3438,838.3906 C1978.9063,838.3906 1978.7813,838.4063 1978.625,838.5 C1978.375,838.6563 1978.2188,838.9531 1978.2188,839.2344 C1978.2188,839.5156 1978.3594,839.7656 1978.5781,839.9375 C1978.7344,840.0469 1978.9219,840.0781 1979.3438,840.0781 L1979.5938,840.0781 L1979.5938,846.5938 L1979.3438,846.5938 C1978.9375,846.5938 1978.7813,846.6094 1978.625,846.7188 C1978.375,846.8906 1978.2188,847.1563 1978.2188,847.4531 C1978.2188,847.7188 1978.3594,847.9688 1978.5781,848.125 C1978.7188,848.25 1978.9531,848.2969 1979.3438,848.2969 L1987.3438,848.2969 L1987.3438,845.7188 C1987.3438,845.2813 1987.3125,845.1406 1987.2344,844.9844 C1987.0625,844.7344 1986.7813,844.5781 1986.5,844.5781 C1986.2344,844.5781 1985.9688,844.6875 1985.7969,844.9375 C1985.6875,845.0938 1985.6563,845.2344 1985.6563,845.7188 L1985.6563,846.5938 L1981.2969,846.5938 L1981.2969,844.1719 Z " fill="#000000"/><text fill="#000000" font-family="sans-serif" font-size="14" lengthAdjust="spacing" textLength="88" x="1996.5" y="848.1436">ETaskStatus</text><line style="stroke:#A80036;stroke-width:1.0;" x1="1968.5" x2="2086.5" y1="859.2969" y2="859.2969"/><text fill="#000000" font-family="sans-serif" font-size="14" lengthAdjust="spacing" textLength="43" x="1973.5" y="876.292">OPEN,</text><text fill="#000000" font-family="sans-serif" font-size="14" lengthAdjust="spacing" textLength="103" x="1973.5" y="892.5889">IN_PROGRESS,</text><text fill="#000000" font-family="sans-serif" font-size="14" lengthAdjust="spacing" textLength="41" x="1973.5" y="908.8857">DONE</text><line style="stroke:#A80036;stroke-width:1.0;" x1="1968.5" x2="2086.5" y1="916.1875" y2="916.1875"/></g><!--class ECategory--><g id="elem_ECategory"><rect codeLine="42" fill="#FEFECE" filter="url(#f9qfg2x90kkl8)" height="96.8906" id="ECategory" style="stroke:#A80036;stroke-width:1.0;" width="107" x="2123" y="827.2969"/><ellipse cx="2138" cy="843.2969" fill="#EB937F" rx="11" ry="11" style="stroke:#A80036;stroke-width:1.0;"/><path d="M2136.7969,844.1719 L2138.25,844.1719 L2138.25,844.2813 C2138.25,844.6875 2138.2813,844.8438 2138.3594,845 C2138.5156,845.25 2138.7969,845.4063 2139.0938,845.4063 C2139.3438,845.4063 2139.6094,845.2656 2139.7656,845.0469 C2139.8906,844.8906 2139.9219,844.7344 2139.9219,844.2813 L2139.9219,842.3594 C2139.9219,842.2031 2139.9219,842.1563 2139.9063,842 C2139.8438,841.5313 2139.5313,841.2188 2139.0781,841.2188 C2138.8281,841.2188 2138.5625,841.3594 2138.3906,841.5781 C2138.2813,841.75 2138.25,841.9063 2138.25,842.3594 L2138.25,842.4844 L2136.7969,842.4844 L2136.7969,840.0781 L2140.7813,840.0781 L2140.7813,840.9375 C2140.7813,841.3438 2140.8125,841.5156 2140.8906,841.6719 C2141.0625,841.9219 2141.3438,842.0781 2141.625,842.0781 C2141.8906,842.0781 2142.1563,841.9375 2142.3281,841.7188 C2142.4375,841.5469 2142.4688,841.4063 2142.4688,840.9375 L2142.4688,838.3906 L2134.8438,838.3906 C2134.4063,838.3906 2134.2813,838.4063 2134.125,838.5 C2133.875,838.6563 2133.7188,838.9531 2133.7188,839.2344 C2133.7188,839.5156 2133.8594,839.7656 2134.0781,839.9375 C2134.2344,840.0469 2134.4219,840.0781 2134.8438,840.0781 L2135.0938,840.0781 L2135.0938,846.5938 L2134.8438,846.5938 C2134.4375,846.5938 2134.2813,846.6094 2134.125,846.7188 C2133.875,846.8906 2133.7188,847.1563 2133.7188,847.4531 C2133.7188,847.7188 2133.8594,847.9688 2134.0781,848.125 C2134.2188,848.25 2134.4531,848.2969 2134.8438,848.2969 L2142.8438,848.2969 L2142.8438,845.7188 C2142.8438,845.2813 2142.8125,845.1406 2142.7344,844.9844 C2142.5625,844.7344 2142.2813,844.5781 2142,844.5781 C2141.7344,844.5781 2141.4688,844.6875 2141.2969,844.9375 C2141.1875,845.0938 2141.1563,845.2344 2141.1563,845.7188 L2141.1563,846.5938 L2136.7969,846.5938 L2136.7969,844.1719 Z " fill="#000000"/><text fill="#000000" font-family="sans-serif" font-size="14" lengthAdjust="spacing" textLength="75" x="2152" y="848.1436">ECategory</text><line style="stroke:#A80036;stroke-width:1.0;" x1="2124" x2="2229" y1="859.2969" y2="859.2969"/><text fill="#000000" font-family="sans-serif" font-size="14" lengthAdjust="spacing" textLength="49" x="2129" y="876.292">WORK,</text><text fill="#000000" font-family="sans-serif" font-size="14" lengthAdjust="spacing" textLength="65" x="2129" y="892.5889">PRIVATE,</text><text fill="#000000" font-family="sans-serif" font-size="14" lengthAdjust="spacing" textLength="61" x="2129" y="908.8857">FINANCE</text><line style="stroke:#A80036;stroke-width:1.0;" x1="2124" x2="2229" y1="916.1875" y2="916.1875"/></g><!--class User--><g id="elem_User"><rect codeLine="48" fill="#FEFECE" filter="url(#f9qfg2x90kkl8)" height="308.75" id="User" style="stroke:#A80036;stroke-width:1.0;" width="636" x="720.5" y="185.2969"/><ellipse cx="1018.75" cy="201.2969" fill="#ADD1B2" rx="11" ry="11" style="stroke:#A80036;stroke-width:1.0;"/><path d="M1021.0938,196.9688 C1020.1563,196.5313 1019.5625,196.3906 1018.6875,196.3906 C1016.0625,196.3906 1014.0625,198.4688 1014.0625,201.1875 L1014.0625,202.3125 C1014.0625,204.8906 1016.1719,206.7813 1019.0625,206.7813 C1020.2813,206.7813 1021.4375,206.4844 1022.1875,205.9375 C1022.7656,205.5313 1023.0938,205.0781 1023.0938,204.6875 C1023.0938,204.2344 1022.7031,203.8438 1022.2344,203.8438 C1022.0156,203.8438 1021.8125,203.9219 1021.625,204.1094 C1021.1719,204.5938 1021.1719,204.5938 1020.9844,204.6875 C1020.5625,204.9531 1019.875,205.0781 1019.1094,205.0781 C1017.0625,205.0781 1015.7656,203.9844 1015.7656,202.2813 L1015.7656,201.1875 C1015.7656,199.4063 1017.0156,198.0938 1018.75,198.0938 C1019.3281,198.0938 1019.9375,198.25 1020.4063,198.5 C1020.8906,198.7813 1021.0625,199 1021.1563,199.4063 C1021.2188,199.8125 1021.25,199.9375 1021.3906,200.0625 C1021.5313,200.2031 1021.7656,200.3125 1021.9844,200.3125 C1022.25,200.3125 1022.5156,200.1719 1022.6875,199.9531 C1022.7969,199.7969 1022.8281,199.6094 1022.8281,199.1875 L1022.8281,197.7656 C1022.8281,197.3281 1022.8125,197.2031 1022.7188,197.0469 C1022.5625,196.7813 1022.2813,196.6406 1021.9844,196.6406 C1021.6875,196.6406 1021.4844,196.7344 1021.2656,197.0469 L1021.0938,196.9688 Z " fill="#000000"/><text fill="#000000" font-family="sans-serif" font-size="14" lengthAdjust="spacing" textLength="31" x="1039.25" y="206.1436">User</text><line style="stroke:#A80036;stroke-width:1.0;" x1="721.5" x2="1355.5" y1="217.2969" y2="217.2969"/><rect fill="none" height="6" style="stroke:#C82930;stroke-width:1.0;" width="6" x="728.5" y="227.9453"/><text fill="#000000" font-family="sans-serif" font-size="14" lengthAdjust="spacing" textLength="124" x="740.5" y="234.292">String userName;</text><rect fill="none" height="6" style="stroke:#C82930;stroke-width:1.0;" width="6" x="728.5" y="244.2422"/><text fill="#000000" font-family="sans-serif" font-size="14" lengthAdjust="spacing" textLength="120" x="740.5" y="250.5889">String password;</text><rect fill="none" height="6" style="stroke:#C82930;stroke-width:1.0;" width="6" x="728.5" y="260.5391"/><text fill="#000000" font-family="sans-serif" font-size="14" lengthAdjust="spacing" textLength="92" x="740.5" y="266.8857">String email;</text><rect fill="none" height="6" style="stroke:#C82930;stroke-width:1.0;" width="6" x="728.5" y="276.8359"/><text fill="#000000" font-family="sans-serif" font-size="14" lengthAdjust="spacing" textLength="219" x="740.5" y="283.1826">TaskManager myTaskManager;</text><line style="stroke:#A80036;stroke-width:1.0;" x1="721.5" x2="1355.5" y1="290.4844" y2="290.4844"/><ellipse cx="731.5" cy="304.1328" fill="#84BE84" rx="3" ry="3" style="stroke:#038048;stroke-width:1.0;"/><text fill="#000000" font-family="sans-serif" font-size="14" lengthAdjust="spacing" textLength="393" x="740.5" y="307.4795">User(userName: String, password: String, email: String)</text><ellipse cx="731.5" cy="320.4297" fill="#84BE84" rx="3" ry="3" style="stroke:#038048;stroke-width:1.0;"/><text fill="#000000" font-family="sans-serif" font-size="14" lengthAdjust="spacing" textLength="610" x="740.5" y="323.7764">void createNewTask(taskName: String, taskDescription: String, dueDate: LocalDate);</text><ellipse cx="731.5" cy="336.7266" fill="#84BE84" rx="3" ry="3" style="stroke:#038048;stroke-width:1.0;"/><text fill="#000000" font-family="sans-serif" font-size="14" lengthAdjust="spacing" textLength="358" x="740.5" y="340.0732">void assignCategoryToTask(category: ECategory);</text><ellipse cx="731.5" cy="353.0234" fill="#84BE84" rx="3" ry="3" style="stroke:#038048;stroke-width:1.0;"/><text fill="#000000" font-family="sans-serif" font-size="14" lengthAdjust="spacing" textLength="254" x="740.5" y="356.3701">void searchTask(taskName: String);</text><ellipse cx="731.5" cy="369.3203" fill="#84BE84" rx="3" ry="3" style="stroke:#038048;stroke-width:1.0;"/><text fill="#000000" font-family="sans-serif" font-size="14" lengthAdjust="spacing" textLength="232" x="740.5" y="372.667">void changeEmail(email: String);</text><ellipse cx="731.5" cy="385.6172" fill="#84BE84" rx="3" ry="3" style="stroke:#038048;stroke-width:1.0;"/><text fill="#000000" font-family="sans-serif" font-size="14" lengthAdjust="spacing" textLength="287" x="740.5" y="388.9639">void changePassword(password :String);</text><ellipse cx="731.5" cy="401.9141" fill="#84BE84" rx="3" ry="3" style="stroke:#038048;stroke-width:1.0;"/><text fill="#000000" font-family="sans-serif" font-size="14" lengthAdjust="spacing" textLength="295" x="740.5" y="405.2607">void createProject(projectName: String);</text><ellipse cx="731.5" cy="418.2109" fill="#84BE84" rx="3" ry="3" style="stroke:#038048;stroke-width:1.0;"/><text fill="#000000" font-family="sans-serif" font-size="14" lengthAdjust="spacing" textLength="358" x="740.5" y="421.5576">void addTaskToProject(taskID: int, projectID: int);</text><ellipse cx="731.5" cy="434.5078" fill="#84BE84" rx="3" ry="3" style="stroke:#038048;stroke-width:1.0;"/><text fill="#000000" font-family="sans-serif" font-size="14" lengthAdjust="spacing" textLength="268" x="740.5" y="437.8545">void createTeam(teamName: String);</text><ellipse cx="731.5" cy="450.8047" fill="#84BE84" rx="3" ry="3" style="stroke:#038048;stroke-width:1.0;"/><text fill="#000000" font-family="sans-serif" font-size="14" lengthAdjust="spacing" textLength="394" x="740.5" y="454.1514">void inviteUserToTeam(users: List&lt;User&gt;, teamID: int);</text><ellipse cx="731.5" cy="467.1016" fill="#84BE84" rx="3" ry="3" style="stroke:#038048;stroke-width:1.0;"/><text fill="#000000" font-family="sans-serif" font-size="14" lengthAdjust="spacing" textLength="209" x="740.5" y="470.4482">void leaveTeam(teamID: int);</text><ellipse cx="731.5" cy="483.3984" fill="#84BE84" rx="3" ry="3" style="stroke:#038048;stroke-width:1.0;"/><text fill="#000000" font-family="sans-serif" font-size="14" lengthAdjust="spacing" textLength="197" x="740.5" y="486.7451">void joinTeam(teamID: int);</text></g><!--class Main--><g id="elem_Main"><rect codeLine="69" fill="#FEFECE" filter="url(#f9qfg2x90kkl8)" height="64.2969" id="Main" style="stroke:#A80036;stroke-width:1.0;" width="203" x="937" y="44.2969"/><ellipse cx="1017.75" cy="60.2969" fill="#ADD1B2" rx="11" ry="11" style="stroke:#A80036;stroke-width:1.0;"/><path d="M1020.0938,55.9688 C1019.1563,55.5313 1018.5625,55.3906 1017.6875,55.3906 C1015.0625,55.3906 1013.0625,57.4688 1013.0625,60.1875 L1013.0625,61.3125 C1013.0625,63.8906 1015.1719,65.7813 1018.0625,65.7813 C1019.2813,65.7813 1020.4375,65.4844 1021.1875,64.9375 C1021.7656,64.5313 1022.0938,64.0781 1022.0938,63.6875 C1022.0938,63.2344 1021.7031,62.8438 1021.2344,62.8438 C1021.0156,62.8438 1020.8125,62.9219 1020.625,63.1094 C1020.1719,63.5938 1020.1719,63.5938 1019.9844,63.6875 C1019.5625,63.9531 1018.875,64.0781 1018.1094,64.0781 C1016.0625,64.0781 1014.7656,62.9844 1014.7656,61.2813 L1014.7656,60.1875 C1014.7656,58.4063 1016.0156,57.0938 1017.75,57.0938 C1018.3281,57.0938 1018.9375,57.25 1019.4063,57.5 C1019.8906,57.7813 1020.0625,58 1020.1563,58.4063 C1020.2188,58.8125 1020.25,58.9375 1020.3906,59.0625 C1020.5313,59.2031 1020.7656,59.3125 1020.9844,59.3125 C1021.25,59.3125 1021.5156,59.1719 1021.6875,58.9531 C1021.7969,58.7969 1021.8281,58.6094 1021.8281,58.1875 L1021.8281,56.7656 C1021.8281,56.3281 1021.8125,56.2031 1021.7188,56.0469 C1021.5625,55.7813 1021.2813,55.6406 1020.9844,55.6406 C1020.6875,55.6406 1020.4844,55.7344 1020.2656,56.0469 L1020.0938,55.9688 Z " fill="#000000"/><text fill="#000000" font-family="sans-serif" font-size="14" lengthAdjust="spacing" textLength="33" x="1038.25" y="65.1436">Main</text><line style="stroke:#A80036;stroke-width:1.0;" x1="938" x2="1139" y1="76.2969" y2="76.2969"/><line style="stroke:#A80036;stroke-width:1.0;" x1="938" x2="1139" y1="84.2969" y2="84.2969"/><ellipse cx="948" cy="97.9453" fill="#84BE84" rx="3" ry="3" style="stroke:#038048;stroke-width:1.0;"/><text fill="#000000" font-family="sans-serif" font-size="14" lengthAdjust="spacing" text-decoration="underline" textLength="177" x="957" y="101.292">void main(args: String[]);</text></g><!--class Project--><g id="elem_Project"><rect codeLine="73" fill="#FEFECE" filter="url(#f9qfg2x90kkl8)" height="162.0781" id="Project" style="stroke:#A80036;stroke-width:1.0;" width="240" x="1469.5" y="587.7969"/><ellipse cx="1559.25" cy="603.7969" fill="#ADD1B2" rx="11" ry="11" style="stroke:#A80036;stroke-width:1.0;"/><path d="M1561.5938,599.4688 C1560.6563,599.0313 1560.0625,598.8906 1559.1875,598.8906 C1556.5625,598.8906 1554.5625,600.9688 1554.5625,603.6875 L1554.5625,604.8125 C1554.5625,607.3906 1556.6719,609.2813 1559.5625,609.2813 C1560.7813,609.2813 1561.9375,608.9844 1562.6875,608.4375 C1563.2656,608.0313 1563.5938,607.5781 1563.5938,607.1875 C1563.5938,606.7344 1563.2031,606.3438 1562.7344,606.3438 C1562.5156,606.3438 1562.3125,606.4219 1562.125,606.6094 C1561.6719,607.0938 1561.6719,607.0938 1561.4844,607.1875 C1561.0625,607.4531 1560.375,607.5781 1559.6094,607.5781 C1557.5625,607.5781 1556.2656,606.4844 1556.2656,604.7813 L1556.2656,603.6875 C1556.2656,601.9063 1557.5156,600.5938 1559.25,600.5938 C1559.8281,600.5938 1560.4375,600.75 1560.9063,601 C1561.3906,601.2813 1561.5625,601.5 1561.6563,601.9063 C1561.7188,602.3125 1561.75,602.4375 1561.8906,602.5625 C1562.0313,602.7031 1562.2656,602.8125 1562.4844,602.8125 C1562.75,602.8125 1563.0156,602.6719 1563.1875,602.4531 C1563.2969,602.2969 1563.3281,602.1094 1563.3281,601.6875 L1563.3281,600.2656 C1563.3281,599.8281 1563.3125,599.7031 1563.2188,599.5469 C1563.0625,599.2813 1562.7813,599.1406 1562.4844,599.1406 C1562.1875,599.1406 1561.9844,599.2344 1561.7656,599.5469 L1561.5938,599.4688 Z " fill="#000000"/><text fill="#000000" font-family="sans-serif" font-size="14" lengthAdjust="spacing" textLength="52" x="1579.75" y="608.6436">Project</text><line style="stroke:#A80036;stroke-width:1.0;" x1="1470.5" x2="1708.5" y1="619.7969" y2="619.7969"/><rect fill="none" height="6" style="stroke:#C82930;stroke-width:1.0;" width="6" x="1477.5" y="630.4453"/><text fill="#000000" font-family="sans-serif" font-size="14" lengthAdjust="spacing" textLength="97" x="1489.5" y="636.792">int projectID;</text><rect fill="none" height="6" style="stroke:#C82930;stroke-width:1.0;" width="6" x="1477.5" y="646.7422"/><text fill="#000000" font-family="sans-serif" font-size="14" lengthAdjust="spacing" textLength="147" x="1489.5" y="653.0889">String projectName;</text><rect fill="none" height="6" style="stroke:#C82930;stroke-width:1.0;" width="6" x="1477.5" y="663.0391"/><text fill="#000000" font-family="sans-serif" font-size="14" lengthAdjust="spacing" textLength="128" x="1489.5" y="669.3857">List&lt;Task&gt; tasks;</text><line style="stroke:#A80036;stroke-width:1.0;" x1="1470.5" x2="1708.5" y1="676.6875" y2="676.6875"/><ellipse cx="1480.5" cy="690.3359" fill="#84BE84" rx="3" ry="3" style="stroke:#038048;stroke-width:1.0;"/><text fill="#000000" font-family="sans-serif" font-size="14" lengthAdjust="spacing" textLength="214" x="1489.5" y="693.6826">Project(projectName: String);</text><ellipse cx="1480.5" cy="706.6328" fill="#84BE84" rx="3" ry="3" style="stroke:#038048;stroke-width:1.0;"/><text fill="#000000" font-family="sans-serif" font-size="14" lengthAdjust="spacing" textLength="181" x="1489.5" y="709.9795">void addTask(task: Task);</text><ellipse cx="1480.5" cy="722.9297" fill="#84BE84" rx="3" ry="3" style="stroke:#038048;stroke-width:1.0;"/><text fill="#000000" font-family="sans-serif" font-size="14" lengthAdjust="spacing" textLength="208" x="1489.5" y="726.2764">void removeTask(task: task);</text><ellipse cx="1480.5" cy="739.2266" fill="#84BE84" rx="3" ry="3" style="stroke:#038048;stroke-width:1.0;"/><text fill="#000000" font-family="sans-serif" font-size="14" lengthAdjust="spacing" textLength="191" x="1489.5" y="742.5732">&lt;Task&gt; getProjectTasks();</text></g><!--class UserManager--><g id="elem_UserManager"><rect codeLine="84" fill="#FEFECE" filter="url(#f9qfg2x90kkl8)" height="178.375" id="UserManager" style="stroke:#A80036;stroke-width:1.0;" width="289" x="7" y="250.7969"/><ellipse cx="101.25" cy="266.7969" fill="#ADD1B2" rx="11" ry="11" style="stroke:#A80036;stroke-width:1.0;"/><path d="M103.5938,262.4688 C102.6563,262.0313 102.0625,261.8906 101.1875,261.8906 C98.5625,261.8906 96.5625,263.9688 96.5625,266.6875 L96.5625,267.8125 C96.5625,270.3906 98.6719,272.2813 101.5625,272.2813 C102.7813,272.2813 103.9375,271.9844 104.6875,271.4375 C105.2656,271.0313 105.5938,270.5781 105.5938,270.1875 C105.5938,269.7344 105.2031,269.3438 104.7344,269.3438 C104.5156,269.3438 104.3125,269.4219 104.125,269.6094 C103.6719,270.0938 103.6719,270.0938 103.4844,270.1875 C103.0625,270.4531 102.375,270.5781 101.6094,270.5781 C99.5625,270.5781 98.2656,269.4844 98.2656,267.7813 L98.2656,266.6875 C98.2656,264.9063 99.5156,263.5938 101.25,263.5938 C101.8281,263.5938 102.4375,263.75 102.9063,264 C103.3906,264.2813 103.5625,264.5 103.6563,264.9063 C103.7188,265.3125 103.75,265.4375 103.8906,265.5625 C104.0313,265.7031 104.2656,265.8125 104.4844,265.8125 C104.75,265.8125 105.0156,265.6719 105.1875,265.4531 C105.2969,265.2969 105.3281,265.1094 105.3281,264.6875 L105.3281,263.2656 C105.3281,262.8281 105.3125,262.7031 105.2188,262.5469 C105.0625,262.2813 104.7813,262.1406 104.4844,262.1406 C104.1875,262.1406 103.9844,262.2344 103.7656,262.5469 L103.5938,262.4688 Z " fill="#000000"/><text fill="#000000" font-family="sans-serif" font-size="14" lengthAdjust="spacing" textLength="92" x="121.75" y="271.6436">UserManager</text><line style="stroke:#A80036;stroke-width:1.0;" x1="8" x2="295" y1="282.7969" y2="282.7969"/><rect fill="none" height="6" style="stroke:#C82930;stroke-width:1.0;" width="6" x="15" y="293.4453"/><text fill="#000000" font-family="sans-serif" font-size="14" lengthAdjust="spacing" textLength="144" x="27" y="299.792">List&lt;User&gt; userList;</text><rect fill="none" height="6" style="stroke:#C82930;stroke-width:1.0;" width="6" x="15" y="309.7422"/><text fill="#000000" font-family="sans-serif" font-size="14" lengthAdjust="spacing" textLength="137" x="27" y="316.0889">List&lt;Team&gt; teams</text><line style="stroke:#A80036;stroke-width:1.0;" x1="8" x2="295" y1="323.3906" y2="323.3906"/><ellipse cx="18" cy="337.0391" fill="#84BE84" rx="3" ry="3" style="stroke:#038048;stroke-width:1.0;"/><text fill="#000000" font-family="sans-serif" font-size="14" lengthAdjust="spacing" textLength="176" x="27" y="340.3857">void addUser(user: User);</text><ellipse cx="18" cy="353.3359" fill="#84BE84" rx="3" ry="3" style="stroke:#038048;stroke-width:1.0;"/><text fill="#000000" font-family="sans-serif" font-size="14" lengthAdjust="spacing" textLength="209" x="27" y="356.6826">void removeUser(userID :int);</text><ellipse cx="18" cy="369.6328" fill="#84BE84" rx="3" ry="3" style="stroke:#038048;stroke-width:1.0;"/><text fill="#000000" font-family="sans-serif" font-size="14" lengthAdjust="spacing" textLength="219" x="27" y="372.9795">int getTeamByID(teamID: int);</text><ellipse cx="18" cy="385.9297" fill="#84BE84" rx="3" ry="3" style="stroke:#038048;stroke-width:1.0;"/><text fill="#000000" font-family="sans-serif" font-size="14" lengthAdjust="spacing" textLength="242" x="27" y="389.2764">int getTeamByUserID(userID: int);</text><ellipse cx="18" cy="402.2266" fill="#84BE84" rx="3" ry="3" style="stroke:#038048;stroke-width:1.0;"/><text fill="#000000" font-family="sans-serif" font-size="14" lengthAdjust="spacing" textLength="234" x="27" y="405.5732">void addTeamMember(user: int);</text><ellipse cx="18" cy="418.5234" fill="#84BE84" rx="3" ry="3" style="stroke:#038048;stroke-width:1.0;"/><text fill="#000000" font-family="sans-serif" font-size="14" lengthAdjust="spacing" textLength="263" x="27" y="421.8701">void removeTeamMember(user: int);</text></g><!--class Team--><g id="elem_Team"><rect codeLine="97" fill="#FEFECE" filter="url(#f9qfg2x90kkl8)" height="145.7813" id="Team" style="stroke:#A80036;stroke-width:1.0;" width="299" x="331" y="266.7969"/><ellipse cx="456.25" cy="282.7969" fill="#ADD1B2" rx="11" ry="11" style="stroke:#A80036;stroke-width:1.0;"/><path d="M458.5938,278.4688 C457.6563,278.0313 457.0625,277.8906 456.1875,277.8906 C453.5625,277.8906 451.5625,279.9688 451.5625,282.6875 L451.5625,283.8125 C451.5625,286.3906 453.6719,288.2813 456.5625,288.2813 C457.7813,288.2813 458.9375,287.9844 459.6875,287.4375 C460.2656,287.0313 460.5938,286.5781 460.5938,286.1875 C460.5938,285.7344 460.2031,285.3438 459.7344,285.3438 C459.5156,285.3438 459.3125,285.4219 459.125,285.6094 C458.6719,286.0938 458.6719,286.0938 458.4844,286.1875 C458.0625,286.4531 457.375,286.5781 456.6094,286.5781 C454.5625,286.5781 453.2656,285.4844 453.2656,283.7813 L453.2656,282.6875 C453.2656,280.9063 454.5156,279.5938 456.25,279.5938 C456.8281,279.5938 457.4375,279.75 457.9063,280 C458.3906,280.2813 458.5625,280.5 458.6563,280.9063 C458.7188,281.3125 458.75,281.4375 458.8906,281.5625 C459.0313,281.7031 459.2656,281.8125 459.4844,281.8125 C459.75,281.8125 460.0156,281.6719 460.1875,281.4531 C460.2969,281.2969 460.3281,281.1094 460.3281,280.6875 L460.3281,279.2656 C460.3281,278.8281 460.3125,278.7031 460.2188,278.5469 C460.0625,278.2813 459.7813,278.1406 459.4844,278.1406 C459.1875,278.1406 458.9844,278.2344 458.7656,278.5469 L458.5938,278.4688 Z " fill="#000000"/><text fill="#000000" font-family="sans-serif" font-size="14" lengthAdjust="spacing" textLength="40" x="476.75" y="287.6436">Team</text><line style="stroke:#A80036;stroke-width:1.0;" x1="332" x2="629" y1="298.7969" y2="298.7969"/><rect fill="none" height="6" style="stroke:#C82930;stroke-width:1.0;" width="6" x="339" y="309.4453"/><text fill="#000000" font-family="sans-serif" font-size="14" lengthAdjust="spacing" textLength="82" x="351" y="315.792">int teamID;</text><rect fill="none" height="6" style="stroke:#C82930;stroke-width:1.0;" width="6" x="339" y="325.7422"/><text fill="#000000" font-family="sans-serif" font-size="14" lengthAdjust="spacing" textLength="132" x="351" y="332.0889">String teamName;</text><rect fill="none" height="6" style="stroke:#C82930;stroke-width:1.0;" width="6" x="339" y="342.0391"/><text fill="#000000" font-family="sans-serif" font-size="14" lengthAdjust="spacing" textLength="147" x="351" y="348.3857">List&lt;Integer&gt; users;</text><line style="stroke:#A80036;stroke-width:1.0;" x1="332" x2="629" y1="355.6875" y2="355.6875"/><ellipse cx="342" cy="369.3359" fill="#84BE84" rx="3" ry="3" style="stroke:#038048;stroke-width:1.0;"/><text fill="#000000" font-family="sans-serif" font-size="14" lengthAdjust="spacing" textLength="182" x="351" y="372.6826">Team(teamName: String)</text><ellipse cx="342" cy="385.6328" fill="#84BE84" rx="3" ry="3" style="stroke:#038048;stroke-width:1.0;"/><text fill="#000000" font-family="sans-serif" font-size="14" lengthAdjust="spacing" textLength="249" x="351" y="388.9795">void addTeamMember(userID: int);</text><ellipse cx="342" cy="401.9297" fill="#84BE84" rx="3" ry="3" style="stroke:#038048;stroke-width:1.0;"/><text fill="#000000" font-family="sans-serif" font-size="14" lengthAdjust="spacing" textLength="273" x="351" y="405.2764">void removeTeamMember(userID: int)</text></g><!--link Main to User--><g id="link_Main_User"><path codeLine="107" d="M1038.5,108.3209 C1038.5,128.2769 1038.5,155.8619 1038.5,185.0259 " fill="none" id="Main-User" style="stroke:#A80036;stroke-width:1.0;"/><polygon fill="#000000" points="1043.5,151.7969,1046.4389,142.7518,1040.5611,142.7518,1043.5,151.7969" style="stroke:#000000;stroke-width:1.0;"/></g><!--link TaskManager to Task--><g id="link_TaskManager_Task"><path codeLine="108" d="M1892.35,477.8159 C1926.91,509.2099 1962.94,541.9419 1995.17,571.2149 " fill="none" id="TaskManager-Task" style="stroke:#A80036;stroke-width:1.0;"/><text fill="#000000" font-family="sans-serif" font-size="13" lengthAdjust="spacing" textLength="54" x="1955.5" y="537.3638">contains</text><text fill="#000000" font-family="sans-serif" font-size="13" lengthAdjust="spacing" textLength="8" x="1892.3809" y="497.8402">1</text><text fill="#000000" font-family="sans-serif" font-size="13" lengthAdjust="spacing" textLength="37" x="1948.6127" y="560.2541">many</text></g><!--link User to TaskManager--><g id="link_User_TaskManager"><path codeLine="109" d="M1356.58,339.7969 C1378.76,339.7969 1401.11,339.7969 1423.29,339.7969 " fill="none" id="User-TaskManager" style="stroke:#A80036;stroke-width:1.0;"/><text fill="#000000" font-family="sans-serif" font-size="13" lengthAdjust="spacing" textLength="30" x="1375" y="332.8638">uses</text></g><!--link Task to ETaskStatus--><g id="link_Task_ETaskStatus"><path codeLine="110" d="M2066.56,766.5939 C2058.96,787.6389 2051.25,809.0049 2044.71,827.13 " fill="none" id="Task-ETaskStatus" style="stroke:#A80036;stroke-width:1.0;"/></g><!--link Task to ECategory--><g id="link_Task_ECategory"><path codeLine="111" d="M2136.91,766.5939 C2144.61,787.6389 2152.43,809.0049 2159.06,827.13 " fill="none" id="Task-ECategory" style="stroke:#A80036;stroke-width:1.0;"/></g><!--link TaskManager to Project--><g id="link_TaskManager_Project"><path codeLine="112" d="M1677.7,478.0529 C1660.39,515.2809 1642.22,554.3729 1626.9,587.3349 " fill="none" id="TaskManager-Project" style="stroke:#A80036;stroke-width:1.0;"/><text fill="#000000" font-family="sans-serif" font-size="13" lengthAdjust="spacing" textLength="54" x="1653.5" y="537.3638">contains</text></g><!--link Project to Task--><g id="link_Project_Task"><path codeLine="113" d="M1709.54,668.7969 C1737.32,668.7969 1768.12,668.7969 1799.88,668.7969 " fill="none" id="Project-Task" style="stroke:#A80036;stroke-width:1.0;"/><text fill="#000000" font-family="sans-serif" font-size="13" lengthAdjust="spacing" textLength="54" x="1727.75" y="661.8638">contains</text><text fill="#000000" font-family="sans-serif" font-size="13" lengthAdjust="spacing" textLength="8" x="1717.4863" y="665.3851">1</text><text fill="#000000" font-family="sans-serif" font-size="13" lengthAdjust="spacing" textLength="37" x="1755.3772" y="681.045">many</text></g><!--link UserManager to User--><g id="link_UserManager_User"><path codeLine="114" d="M224.046,250.6239 C249.552,225.2309 280.231,200.3909 313.5,185.2969 C380.96,154.6909 405.497,173.6339 479.5,170.2969 C554.388,166.9199 574.955,166.4079 647.5,185.2969 C671.427,191.5269 695.869,198.8139 720.269,206.7679 " fill="none" id="UserManager-User" style="stroke:#A80036;stroke-width:1.0;"/><text fill="#000000" font-family="sans-serif" font-size="13" lengthAdjust="spacing" textLength="54" x="480.5" y="151.3638">contains</text><text fill="#000000" font-family="sans-serif" font-size="13" lengthAdjust="spacing" textLength="8" x="221.7225" y="239.675">1</text><text fill="#000000" font-family="sans-serif" font-size="13" lengthAdjust="spacing" textLength="37" x="675.3769" y="200.5456">many</text></g><!--link Team to User--><g id="link_Team_User"><path codeLine="115" d="M630.034,339.7969 C658.362,339.7969 688.978,339.7969 720.265,339.7969 " fill="none" id="Team-User" style="stroke:#A80036;stroke-width:1.0;"/><text fill="#000000" font-family="sans-serif" font-size="13" lengthAdjust="spacing" textLength="54" x="648.25" y="332.8638">contains</text><text fill="#000000" font-family="sans-serif" font-size="13" lengthAdjust="spacing" textLength="8" x="637.9506" y="336.4861">1</text><text fill="#000000" font-family="sans-serif" font-size="13" lengthAdjust="spacing" textLength="37" x="675.3728" y="352.044">many</text></g><!--SRC=[hLR9Rjim4BthAuYS5CG-5BqfWO4qLbgXzGBRQGv5KJ0o8JEnI46a7HX5_hqShbhi62qA1B74UHo-UJF3aNYX3DLSa2YIL6u9Mc7nWcwh2iLBYGk2FbwY8RhROY7GcEAYncKPHRb-1-Zl2A4XPH99zPADh-5rAMlA2hqonINfhes9o6jQISgPDdtZETwEiIHelIFm2ukfEbtk118IxuI1KI5lqZjbBtXz6A7SF56YpUhl2lZ4XaU25AU1fv0WS_wWIo0OxDa9ydGkmUUUqpN2wxKxDxR77XBakLnUUsHDIhudPy1l4MeeEC5CwLmh8OTViDXCS7MJCOKbzK3RHvepH7zz33Al-JF9vGXLvi428oE7THu3HSCmhubYCYMlNgr_5yWxNPCjaQIhlxP3RHH4WktJ8Hltx4PW8MZ1l6mMerFe9Mp9xVDYmuzjz8dJmu9SHax2B4D1S9rlxddT0JQrqIvr5PgqsAX4nivj2YSS5HqmmpRcaShDwb3nuzWdphS4CxJ1OabBkiKrG6BAgfscrCvepiiArrHmjkexUuiYmdObIi5cUWvQUZPFfmFrcqr_pHUppujqkOJNyMoQXYqk8Mh3uspnLG7cY-pxxIfLJ_VPz7Pwfy6cr1-4hd5_4-pKU_Tsg1JmbTVhvXefCTtgXKOze_BGU7Fz3qV4pc-8ttaDAzgd5y4txtzkZQErlUBQ-Vkto9bQSNGtc1KaXLZYTaHTpDmg43ifKD97wk3FL7BeEo2tuWxUkdJjtaQJjuvO4Lp6KlqxuPooFPK4Sgcq0YnaL2XjeVDWUQGoeTRx_bLFx8FxllsPKtRK7AfqWjKuX3Az-gqcZwJv6z9RbRmindKX7E4VFqtpc6rM1pyClGIjwWwQXe4MRdW_nlug1rhwH0-AtXXgsAMtXylBdgFliBWP3OWSff8bgfNNNMidZ0j0QJdI2H6MlwFdsp7H7dlql3qReyHdoiqBvT3CYsugMu07lTrwwUOR95Ae2IcVF9Csmkfq2XGa0KZurD6KMfyrjfo3B7O-6yN25yhHsd-7S3-eevGT30Zh4XuEjUO96aNDQ_FYmmKQNfIO7IvqoIHgE32fDeW8uCqhDW7cGky6Rutv4DRSrTKwGndcRifwxtR5442d6RI8Efo9nECWzlS0Vm00]--></g></svg>